<svg xmlns="http://www.w3.org/2000/svg" width="234" height="177" fill="none"><rect width="232.765" height="175.904" x=".84" y=".242" fill="#fff" rx="13.301"/><path fill="#000" d="M15.662 49.752v.713h-1.83v6h-.876v-6h-1.84v-.713h4.546zm1.532.578a.576.576 0 0 1-.424-.174.576.576 0 0 1-.173-.423c0-.167.058-.309.173-.424a.576.576 0 0 1 .424-.173c.16 0 .295.057.405.173a.576.576 0 0 1 .173.424.576.576 0 0 1-.173.423.534.534 0 0 1-.405.174zm.424.857v5.278h-.877v-5.278h.877zm7.84-.096c.411 0 .777.086 1.098.26.321.167.575.42.761.76.186.34.28.755.28 1.243v3.11h-.867V53.48c0-.526-.132-.928-.395-1.204-.257-.282-.607-.423-1.05-.423-.456 0-.819.147-1.088.443-.27.288-.405.709-.405 1.261v2.909h-.867V53.48c0-.526-.131-.928-.394-1.204-.257-.282-.607-.423-1.05-.423-.456 0-.819.147-1.089.443-.27.288-.404.709-.404 1.261v2.909h-.877v-5.278h.877v.76a1.74 1.74 0 0 1 .693-.635c.296-.148.62-.221.973-.221.443 0 .835.1 1.175.298.34.2.594.491.761.877a1.73 1.73 0 0 1 .732-.867c.34-.206.72-.308 1.136-.308zm8.392 2.533c0 .167-.01.343-.029.53h-4.218c.032.52.208.927.53 1.222.327.29.722.434 1.184.434.379 0 .693-.087.944-.26a1.42 1.42 0 0 0 .54-.713h.943a2.292 2.292 0 0 1-.848 1.243c-.423.314-.95.471-1.58.471-.5 0-.95-.112-1.348-.337a2.403 2.403 0 0 1-.924-.953c-.225-.417-.337-.899-.337-1.445s.109-1.024.327-1.435c.219-.41.524-.725.915-.944a2.733 2.733 0 0 1 1.368-.337c.5 0 .944.11 1.329.328.385.218.68.52.886.905a2.6 2.6 0 0 1 .318 1.29zm-.906-.183c0-.334-.073-.62-.221-.858a1.394 1.394 0 0 0-.607-.548 1.81 1.81 0 0 0-.838-.193c-.443 0-.822.141-1.136.424-.308.282-.485.674-.53 1.175h3.332zM16.019 86.58c0 .56-.193 1.025-.578 1.397-.379.366-.96.55-1.743.55h-1.29v2.802h-.877v-6.713h2.167c.757 0 1.332.183 1.724.55.398.365.597.837.597 1.415zm-2.321 1.224c.488 0 .847-.106 1.078-.318.232-.212.347-.513.347-.905 0-.828-.475-1.243-1.425-1.243h-1.29v2.466h1.29zm4.287-.896a1.69 1.69 0 0 1 .655-.703c.288-.167.638-.25 1.05-.25v.905h-.232c-.982 0-1.473.533-1.473 1.599v2.87h-.877v-5.278h.877v.857zm5.018 4.508a2.73 2.73 0 0 1-1.349-.337 2.45 2.45 0 0 1-.943-.954c-.225-.417-.337-.899-.337-1.445 0-.539.115-1.014.346-1.425.238-.417.559-.735.963-.953a2.749 2.749 0 0 1 1.358-.338c.501 0 .954.113 1.358.338.405.218.723.532.954.944.237.41.356.889.356 1.434 0 .546-.122 1.028-.366 1.445a2.48 2.48 0 0 1-.973.954c-.41.224-.866.337-1.367.337zm0-.77c.314 0 .61-.075.886-.222.276-.148.498-.37.665-.665.173-.295.26-.655.26-1.079 0-.423-.084-.783-.25-1.078a1.607 1.607 0 0 0-.656-.655 1.795 1.795 0 0 0-.876-.222 1.81 1.81 0 0 0-.886.222 1.56 1.56 0 0 0-.636.655c-.16.295-.24.655-.24 1.078 0 .43.076.793.23 1.089.16.295.373.517.636.664.263.142.552.212.867.212zm6.035-4.681c.456 0 .854.099 1.195.298.346.2.603.45.77.751v-.963h.886v5.394c0 .481-.103.908-.308 1.28a2.18 2.18 0 0 1-.886.887c-.379.212-.822.318-1.33.318-.693 0-1.27-.164-1.733-.492a1.92 1.92 0 0 1-.819-1.338h.867c.097.32.296.578.597.77.302.2.665.299 1.089.299.481 0 .873-.151 1.175-.453.308-.302.462-.726.462-1.271v-1.108a2.11 2.11 0 0 1-.77.77c-.34.206-.739.309-1.195.309a2.44 2.44 0 0 1-1.28-.347 2.432 2.432 0 0 1-.896-.973 3.03 3.03 0 0 1-.328-1.425c0-.54.11-1.011.328-1.416a2.38 2.38 0 0 1 .895-.953 2.496 2.496 0 0 1 1.281-.338zm1.965 2.715c0-.398-.08-.744-.24-1.04a1.658 1.658 0 0 0-.656-.674c-.27-.16-.568-.24-.895-.24-.328 0-.626.076-.896.23a1.68 1.68 0 0 0-.645.675 2.15 2.15 0 0 0-.241 1.04c0 .404.08.757.24 1.06.161.295.376.523.646.683.27.154.568.231.896.231.327 0 .626-.077.895-.23a1.73 1.73 0 0 0 .655-.685c.16-.302.241-.651.241-1.05zm3.244-1.772a1.69 1.69 0 0 1 .654-.703c.29-.167.64-.25 1.05-.25v.905h-.23c-.983 0-1.474.533-1.474 1.599v2.87h-.877v-5.278h.877v.857zm7.532 1.58c0 .167-.01.343-.03.53h-4.218c.032.52.209.927.53 1.223a1.73 1.73 0 0 0 1.185.433c.378 0 .693-.087.944-.26.256-.18.436-.417.539-.713h.944a2.292 2.292 0 0 1-.848 1.243c-.424.314-.95.472-1.58.472-.5 0-.95-.113-1.348-.337a2.403 2.403 0 0 1-.924-.954c-.225-.417-.337-.899-.337-1.445 0-.545.109-1.024.327-1.434a2.27 2.27 0 0 1 .915-.944 2.734 2.734 0 0 1 1.368-.338c.5 0 .944.11 1.329.328.385.218.68.52.886.905.212.38.318.81.318 1.29zm-.906-.183c0-.334-.073-.62-.221-.857a1.394 1.394 0 0 0-.607-.55 1.81 1.81 0 0 0-.838-.192c-.443 0-.822.141-1.136.424-.308.282-.485.674-.53 1.175h3.332zm3.931 3.11c-.404 0-.767-.067-1.088-.202a1.89 1.89 0 0 1-.761-.577 1.563 1.563 0 0 1-.308-.858h.905a.894.894 0 0 0 .366.646c.225.167.517.25.876.25.334 0 .598-.074.79-.221a.677.677 0 0 0 .29-.559.541.541 0 0 0-.31-.51c-.205-.116-.522-.228-.953-.338a7.844 7.844 0 0 1-.963-.308 1.83 1.83 0 0 1-.635-.472c-.174-.212-.26-.488-.26-.828 0-.27.08-.517.24-.742a1.6 1.6 0 0 1 .684-.53 2.41 2.41 0 0 1 1.011-.201c.585 0 1.057.147 1.416.443.36.295.552.7.578 1.213h-.876a.9.9 0 0 0-.337-.664c-.2-.167-.47-.25-.81-.25-.314 0-.565.067-.75.201a.625.625 0 0 0-.28.53c0 .174.055.318.164.433.115.11.257.2.424.27.173.064.41.138.712.222a6.9 6.9 0 0 1 .925.308c.237.096.44.244.607.443.173.199.263.459.27.78 0 .289-.081.549-.242.78-.16.231-.388.414-.683.55a2.445 2.445 0 0 1-1.002.192zm5.032 0a2.78 2.78 0 0 1-1.088-.202 1.891 1.891 0 0 1-.761-.577 1.563 1.563 0 0 1-.309-.858h.906a.893.893 0 0 0 .366.646c.225.167.517.25.876.25.334 0 .597-.074.79-.221a.677.677 0 0 0 .289-.559.54.54 0 0 0-.308-.51c-.206-.116-.523-.228-.954-.338a7.844 7.844 0 0 1-.963-.308 1.83 1.83 0 0 1-.636-.472c-.173-.212-.26-.488-.26-.828 0-.27.08-.517.241-.742.16-.224.389-.4.684-.53a2.409 2.409 0 0 1 1.011-.201c.585 0 1.057.147 1.416.443.36.295.552.7.578 1.213h-.876a.9.9 0 0 0-.337-.664c-.2-.167-.47-.25-.81-.25-.314 0-.565.067-.75.201a.625.625 0 0 0-.28.53.6.6 0 0 0 .164.433c.115.11.256.2.423.27.174.064.411.138.713.222a6.9 6.9 0 0 1 .925.308c.237.096.44.244.606.443.174.199.264.459.27.78 0 .289-.08.549-.24.78-.161.231-.39.414-.684.55a2.446 2.446 0 0 1-1.002.192zM15.662 119.48v.713h-1.83v6h-.876v-6h-1.84v-.713h4.546zm.752 4.055c0-.539.109-1.011.327-1.416.219-.411.517-.728.896-.953a2.493 2.493 0 0 1 1.281-.337c.462 0 .864.099 1.204.298.34.199.594.45.76.752v-.964h.887v5.278h-.886v-.982a2.087 2.087 0 0 1-.78.77c-.34.2-.739.299-1.195.299-.468 0-.892-.116-1.271-.347a2.431 2.431 0 0 1-.896-.972 3.034 3.034 0 0 1-.327-1.426zm4.469.01c0-.398-.08-.745-.241-1.04a1.661 1.661 0 0 0-.655-.675c-.27-.16-.568-.24-.896-.24-.327 0-.626.077-.895.231a1.68 1.68 0 0 0-.646.674 2.15 2.15 0 0 0-.24 1.04c0 .405.08.758.24 1.06.16.295.376.523.646.683.27.154.568.232.895.232.328 0 .626-.078.896-.232a1.72 1.72 0 0 0 .655-.683c.16-.302.24-.652.24-1.05zm4.235 2.735c-.404 0-.767-.067-1.088-.202a1.89 1.89 0 0 1-.76-.578 1.56 1.56 0 0 1-.309-.857h.905a.893.893 0 0 0 .366.645c.225.167.517.25.877.25.334 0 .597-.073.79-.221a.678.678 0 0 0 .288-.559.54.54 0 0 0-.308-.51c-.205-.116-.523-.228-.953-.337a8.025 8.025 0 0 1-.963-.308 1.846 1.846 0 0 1-.636-.472c-.173-.212-.26-.488-.26-.829 0-.269.08-.517.24-.741.161-.225.39-.402.684-.53a2.407 2.407 0 0 1 1.012-.202c.584 0 1.056.147 1.416.443.36.295.552.7.577 1.213h-.876a.899.899 0 0 0-.337-.664c-.2-.167-.469-.251-.81-.251-.314 0-.564.068-.75.203a.623.623 0 0 0-.28.529c0 .174.055.318.164.434.116.109.257.199.424.269.173.065.41.138.713.222.378.103.687.205.924.308.238.096.44.244.607.443.173.199.263.459.27.78 0 .289-.08.549-.241.78-.16.232-.389.415-.684.549a2.436 2.436 0 0 1-1.002.193zm6.111-.087-2.07-2.33v2.33h-.877v-7.127h.876v4.19l2.032-2.341h1.224l-2.485 2.63 2.494 2.648H31.23zm-11.261 28.152-1.946 6.713h-.982l-1.56-5.403-1.619 5.403-.972.009-1.878-6.722h.934l1.464 5.692 1.618-5.692h.982l1.541 5.672 1.474-5.672h.944zm3.26 6.799c-.494 0-.943-.112-1.348-.337a2.45 2.45 0 0 1-.944-.953c-.224-.418-.337-.899-.337-1.445 0-.539.116-1.014.347-1.425.238-.418.559-.736.963-.954a2.746 2.746 0 0 1 1.358-.337c.5 0 .954.112 1.358.337.405.218.723.533.954.944.237.411.356.889.356 1.435s-.122 1.027-.366 1.445a2.48 2.48 0 0 1-.973.953 2.8 2.8 0 0 1-1.367.337zm0-.77c.315 0 .61-.074.887-.222a1.65 1.65 0 0 0 .664-.664c.174-.296.26-.655.26-1.079 0-.424-.083-.783-.25-1.079a1.614 1.614 0 0 0-.655-.655 1.802 1.802 0 0 0-.877-.221c-.32 0-.616.074-.886.221a1.57 1.57 0 0 0-.635.655c-.16.296-.241.655-.241 1.079 0 .43.077.793.231 1.088.16.296.373.517.636.665.263.141.552.212.867.212zm4.736-3.737a1.69 1.69 0 0 1 .655-.703c.289-.167.639-.251 1.05-.251v.906h-.232c-.982 0-1.473.533-1.473 1.599v2.87h-.877v-5.278h.877v.857zm5.663 4.421-2.07-2.331v2.331h-.877v-7.127h.877v4.189l2.032-2.34h1.223l-2.485 2.629 2.495 2.649h-1.195zm2.886-7.127v7.127h-.876v-7.127h.876zm3.796 7.213c-.494 0-.944-.112-1.348-.337a2.45 2.45 0 0 1-.944-.953c-.225-.418-.337-.899-.337-1.445 0-.539.115-1.014.346-1.425.238-.418.559-.736.963-.954a2.745 2.745 0 0 1 1.358-.337c.501 0 .954.112 1.358.337.405.218.723.533.954.944.238.411.356.889.356 1.435s-.122 1.027-.366 1.445a2.48 2.48 0 0 1-.972.953 2.8 2.8 0 0 1-1.368.337zm0-.77c.315 0 .61-.074.886-.222.276-.147.498-.369.665-.664.173-.296.26-.655.26-1.079 0-.424-.084-.783-.25-1.079a1.615 1.615 0 0 0-.656-.655 1.803 1.803 0 0 0-.876-.221 1.82 1.82 0 0 0-.886.221c-.264.142-.475.36-.636.655-.16.296-.24.655-.24 1.079 0 .43.076.793.23 1.088.161.296.373.517.636.665.263.141.552.212.867.212zm3.531-1.975c0-.539.11-1.011.328-1.415a2.38 2.38 0 0 1 .895-.954 2.493 2.493 0 0 1 1.281-.337c.463 0 .864.1 1.204.299.34.199.594.449.761.751v-.963h.886v5.278h-.886v-.983a2.097 2.097 0 0 1-.78.771c-.34.199-.738.298-1.194.298-.469 0-.893-.115-1.272-.346a2.44 2.44 0 0 1-.895-.973 3.034 3.034 0 0 1-.328-1.426zm4.47.01a2.14 2.14 0 0 0-.242-1.04 1.659 1.659 0 0 0-.655-.674 1.714 1.714 0 0 0-.895-.241c-.328 0-.626.077-.896.231-.27.154-.485.379-.645.674-.16.296-.241.642-.241 1.04 0 .405.08.758.24 1.06.161.295.376.523.646.684.27.154.568.231.896.231.327 0 .626-.077.895-.231a1.73 1.73 0 0 0 .655-.684 2.21 2.21 0 0 0 .241-1.05zm2.039-.01c0-.539.109-1.011.327-1.415a2.38 2.38 0 0 1 .896-.954 2.51 2.51 0 0 1 1.29-.337c.411 0 .794.096 1.147.289.353.186.623.433.809.742v-2.793h.886v7.127h-.886v-.992c-.174.314-.43.574-.77.78-.341.199-.74.298-1.195.298-.469 0-.896-.115-1.281-.346a2.44 2.44 0 0 1-.896-.973 3.032 3.032 0 0 1-.327-1.426zm4.469.01c0-.398-.08-.745-.241-1.04a1.659 1.659 0 0 0-.655-.674 1.714 1.714 0 0 0-.896-.241c-.327 0-.626.077-.895.231a1.68 1.68 0 0 0-.646.674c-.16.296-.24.642-.24 1.04 0 .405.08.758.24 1.06.16.295.376.523.646.684.27.154.568.231.895.231.328 0 .626-.077.896-.231a1.73 1.73 0 0 0 .655-.684c.16-.302.24-.652.24-1.05zm57.326-107.155c.045-.59.273-1.053.684-1.386.411-.334.944-.501 1.599-.501.436 0 .812.08 1.127.24.321.154.562.366.722.636.167.27.25.575.25.915a1.6 1.6 0 0 1-.346 1.03c-.225.29-.52.476-.886.56v.047c.417.103.748.305.992.607s.366.697.366 1.185c0 .366-.084.696-.251.992a1.734 1.734 0 0 1-.751.684c-.334.166-.735.25-1.204.25-.68 0-1.239-.177-1.676-.53-.436-.36-.68-.866-.732-1.521h.848c.045.385.202.7.472.943.269.244.629.366 1.079.366.449 0 .789-.115 1.02-.346.238-.238.357-.543.357-.915 0-.482-.161-.829-.482-1.04-.321-.212-.806-.318-1.454-.318h-.222v-.732h.232c.59-.007 1.036-.103 1.338-.29.302-.192.453-.487.453-.885 0-.34-.112-.613-.337-.819-.218-.205-.533-.308-.944-.308-.398 0-.719.103-.963.308a1.25 1.25 0 0 0-.434.828h-.857zm5.672 0c.045-.59.273-1.053.684-1.386.411-.334.943-.501 1.598-.501.437 0 .813.08 1.127.24.321.154.562.366.723.636.167.27.25.575.25.915a1.6 1.6 0 0 1-.347 1.03c-.224.29-.52.476-.886.56v.047c.418.103.748.305.992.607s.366.697.366 1.185c0 .366-.083.696-.25.992a1.74 1.74 0 0 1-.751.684c-.334.166-.736.25-1.204.25-.681 0-1.24-.177-1.676-.53-.437-.36-.681-.866-.732-1.521h.847c.045.385.203.7.472.943.27.244.63.366 1.079.366.449 0 .79-.115 1.021-.346.237-.238.356-.543.356-.915 0-.482-.16-.829-.481-1.04-.321-.212-.806-.318-1.455-.318h-.221v-.732h.231c.591-.007 1.037-.103 1.339-.29.302-.192.452-.487.452-.885 0-.34-.112-.613-.337-.819-.218-.205-.533-.308-.944-.308-.398 0-.719.103-.963.308a1.249 1.249 0 0 0-.433.828h-.857zm5.498-.183c0-.436.132-.783.395-1.04.263-.263.6-.395 1.011-.395.411 0 .748.132 1.011.395.264.257.395.604.395 1.04 0 .443-.131.797-.395 1.06-.263.257-.6.385-1.011.385-.411 0-.748-.128-1.011-.385-.263-.264-.395-.617-.395-1.06zm5.625-1.329-3.901 6.723h-.867l3.901-6.723h.867zm-4.219.434a.641.641 0 0 0-.52.23c-.122.148-.183.37-.183.665 0 .296.061.52.183.675a.641.641 0 0 0 .52.23.641.641 0 0 0 .52-.23c.129-.161.193-.386.193-.675 0-.295-.064-.517-.193-.664a.641.641 0 0 0-.52-.231zm2.283 4.96c0-.443.131-.793.395-1.05.263-.263.6-.395 1.011-.395.411 0 .745.132 1.001.395.264.257.395.607.395 1.05 0 .436-.131.786-.395 1.05-.256.263-.59.394-1.001.394-.411 0-.748-.128-1.011-.385-.264-.263-.395-.616-.395-1.06zm1.396-.896a.643.643 0 0 0-.52.231c-.128.148-.193.37-.193.665 0 .289.065.51.193.664a.655.655 0 0 0 .52.222.652.652 0 0 0 .52-.222c.129-.154.193-.375.193-.664 0-.296-.064-.517-.193-.665a.64.64 0 0 0-.52-.231zm4.8-.433c0-.54.109-1.012.328-1.416a2.38 2.38 0 0 1 .895-.954 2.499 2.499 0 0 1 1.281-.337c.463 0 .864.1 1.204.299.341.199.594.45.761.751v-.963h.886v5.278h-.886v-.983a2.085 2.085 0 0 1-.78.771c-.34.199-.738.298-1.194.298-.469 0-.893-.115-1.272-.346a2.433 2.433 0 0 1-.895-.973 3.021 3.021 0 0 1-.328-1.425zm4.469.01c0-.399-.08-.746-.241-1.04a1.649 1.649 0 0 0-.655-.675 1.715 1.715 0 0 0-.895-.24c-.328 0-.626.076-.896.23a1.67 1.67 0 0 0-.645.675c-.161.295-.241.641-.241 1.04 0 .404.08.757.241 1.06.16.294.375.522.645.683.27.154.568.231.896.231.327 0 .626-.077.895-.231.277-.16.495-.389.655-.684.161-.302.241-.652.241-1.05zm4.987-2.726c.398 0 .758.086 1.079.26.321.167.571.42.751.76.186.34.279.755.279 1.243v3.11h-.867V53.48c0-.526-.131-.928-.394-1.204-.264-.282-.623-.423-1.079-.423-.462 0-.832.144-1.108.433-.269.289-.404.71-.404 1.262v2.918h-.877v-7.127h.877v2.6c.173-.27.411-.478.712-.626a2.36 2.36 0 0 1 1.031-.221zm8.357 2.533c0 .167-.01.343-.029.53h-4.219c.032.52.209.927.53 1.222.327.29.722.434 1.185.434.378 0 .693-.087.943-.26a1.42 1.42 0 0 0 .54-.713h.944a2.296 2.296 0 0 1-.848 1.243c-.424.314-.95.471-1.579.471-.501 0-.951-.112-1.349-.337a2.395 2.395 0 0 1-.924-.953c-.225-.417-.338-.899-.338-1.445s.11-1.024.328-1.435c.218-.41.523-.725.915-.944a2.733 2.733 0 0 1 1.368-.337c.5 0 .943.11 1.329.328.385.218.68.52.886.905a2.6 2.6 0 0 1 .318 1.29zm-.906-.183c0-.334-.074-.62-.221-.858a1.396 1.396 0 0 0-.607-.548 1.81 1.81 0 0 0-.838-.193 1.64 1.64 0 0 0-1.136.424c-.309.282-.485.674-.53 1.175h3.332zm1.735.366c0-.54.109-1.012.327-1.416.219-.411.517-.729.896-.954a2.494 2.494 0 0 1 1.281-.337c.462 0 .864.1 1.204.299.34.199.594.45.761.751v-.963h.886v5.278h-.886v-.983a2.1 2.1 0 0 1-.78.771c-.341.199-.739.298-1.195.298-.468 0-.892-.115-1.271-.346a2.436 2.436 0 0 1-.896-.973 3.033 3.033 0 0 1-.327-1.425zm4.469.01c0-.399-.08-.746-.241-1.04a1.655 1.655 0 0 0-.655-.675c-.27-.16-.568-.24-.896-.24a1.77 1.77 0 0 0-.895.23 1.68 1.68 0 0 0-.646.675c-.16.295-.24.641-.24 1.04 0 .404.08.757.24 1.06.161.294.376.522.646.683.269.154.568.231.895.231.328 0 .626-.077.896-.231a1.72 1.72 0 0 0 .655-.684c.161-.302.241-.652.241-1.05zm2.04-.01c0-.54.109-1.012.327-1.416.218-.411.517-.729.896-.954a2.51 2.51 0 0 1 1.29-.337c.411 0 .793.097 1.146.29.354.185.623.433.809.74v-2.792h.886v7.127h-.886v-.992c-.173.314-.43.575-.77.78-.34.199-.738.298-1.194.298-.469 0-.896-.115-1.281-.346a2.429 2.429 0 0 1-.896-.973 3.033 3.033 0 0 1-.327-1.425zm4.468.01c0-.399-.08-.746-.24-1.04a1.661 1.661 0 0 0-.655-.675c-.27-.16-.569-.24-.896-.24a1.684 1.684 0 0 0-1.541.905c-.161.295-.241.642-.241 1.04 0 .404.08.757.241 1.06.161.294.376.522.645.683.27.154.569.231.896.231.327 0 .626-.077.896-.231.276-.16.494-.389.655-.684.16-.302.24-.652.24-1.05zm7.237 2.734c-.494 0-.944-.112-1.348-.337a2.45 2.45 0 0 1-.944-.953c-.225-.417-.337-.899-.337-1.445 0-.54.115-1.014.347-1.425.237-.417.558-.735.963-.954a2.746 2.746 0 0 1 1.358-.337c.5 0 .953.113 1.358.337.404.219.722.533.953.944.238.411.357.89.357 1.435 0 .546-.122 1.028-.366 1.445a2.482 2.482 0 0 1-.973.953 2.803 2.803 0 0 1-1.368.337zm0-.77c.315 0 .61-.074.886-.221.276-.148.498-.37.665-.665.173-.295.26-.655.26-1.079 0-.424-.084-.783-.251-1.078a1.606 1.606 0 0 0-.655-.655 1.792 1.792 0 0 0-.876-.222c-.321 0-.616.074-.886.222-.263.14-.475.36-.636.655-.16.295-.24.654-.24 1.078 0 .43.077.793.231 1.089.16.295.372.517.635.664.264.141.553.212.867.212zm6.007-3.872h-1.108v4.556h-.876v-4.556h-.684v-.722h.684v-.376c0-.59.15-1.02.452-1.29.308-.276.8-.414 1.474-.414v.732c-.385 0-.658.077-.819.23-.154.148-.231.396-.231.742v.376h1.108v.722zm5.458 4.642a2.79 2.79 0 0 1-1.089-.202 1.898 1.898 0 0 1-.761-.578 1.569 1.569 0 0 1-.308-.857h.906a.889.889 0 0 0 .366.645c.224.168.516.25.876.25.334 0 .597-.073.79-.22a.679.679 0 0 0 .289-.56.541.541 0 0 0-.308-.51c-.206-.115-.524-.228-.954-.337a7.785 7.785 0 0 1-.963-.308 1.83 1.83 0 0 1-.636-.472c-.173-.212-.26-.488-.26-.828 0-.27.08-.517.241-.742.161-.224.388-.401.684-.53a2.408 2.408 0 0 1 1.011-.202c.584 0 1.056.148 1.416.443.359.296.552.7.578 1.214h-.877a.896.896 0 0 0-.337-.665c-.199-.167-.469-.25-.809-.25-.314 0-.565.067-.751.202a.625.625 0 0 0-.279.53c0 .173.054.318.163.433.116.11.257.2.424.27.174.064.411.138.713.221.379.103.687.206.924.309.238.096.44.244.607.443.174.199.263.459.27.78 0 .289-.08.549-.241.78a1.63 1.63 0 0 1-.684.549 2.445 2.445 0 0 1-1.001.192zm2.836-2.735c0-.546.109-1.02.327-1.425a2.36 2.36 0 0 1 .905-.954 2.642 2.642 0 0 1 1.339-.337c.649 0 1.182.158 1.599.472.424.315.703.751.838 1.31h-.944a1.345 1.345 0 0 0-.53-.76c-.257-.187-.578-.28-.963-.28-.501 0-.905.173-1.213.52-.309.34-.463.825-.463 1.454 0 .636.154 1.127.463 1.474.308.347.712.52 1.213.52.385 0 .706-.09.963-.27.257-.18.434-.436.53-.77h.944c-.141.54-.424.972-.848 1.3-.423.321-.953.481-1.589.481a2.64 2.64 0 0 1-1.339-.337 2.356 2.356 0 0 1-.905-.953c-.218-.411-.327-.893-.327-1.445zm8.797-2.725c.398 0 .758.086 1.079.26.321.167.571.42.751.76.186.34.279.755.279 1.243v3.11h-.867V53.48c0-.526-.131-.928-.394-1.204-.264-.282-.623-.423-1.079-.423-.462 0-.832.144-1.108.433-.269.289-.404.71-.404 1.262v2.918h-.877v-7.127h.877v2.6c.173-.27.411-.478.712-.626a2.36 2.36 0 0 1 1.031-.221zm8.357 2.533c0 .167-.01.343-.029.53h-4.219c.032.52.209.927.53 1.222.327.29.722.434 1.185.434.378 0 .693-.087.943-.26a1.42 1.42 0 0 0 .54-.713h.944a2.296 2.296 0 0 1-.848 1.243c-.424.314-.95.471-1.579.471-.501 0-.951-.112-1.349-.337a2.395 2.395 0 0 1-.924-.953c-.225-.417-.338-.899-.338-1.445s.11-1.024.328-1.435c.218-.41.523-.725.915-.944a2.733 2.733 0 0 1 1.368-.337c.5 0 .943.11 1.329.328.385.218.68.52.886.905a2.6 2.6 0 0 1 .318 1.29zm-.906-.183c0-.334-.074-.62-.221-.858a1.396 1.396 0 0 0-.607-.548 1.81 1.81 0 0 0-.838-.193 1.64 1.64 0 0 0-1.136.424c-.309.282-.485.674-.53 1.175h3.332zm1.735.366c0-.54.109-1.012.327-1.416.219-.411.517-.729.896-.954a2.514 2.514 0 0 1 1.291-.337c.411 0 .793.097 1.146.29.353.185.623.433.809.74v-2.792h.886v7.127h-.886v-.992c-.174.314-.43.575-.771.78-.34.199-.738.298-1.194.298-.469 0-.896-.115-1.281-.346a2.436 2.436 0 0 1-.896-.973 3.033 3.033 0 0 1-.327-1.425zm4.469.01c0-.399-.08-.746-.241-1.04a1.655 1.655 0 0 0-.655-.675c-.27-.16-.568-.24-.896-.24a1.77 1.77 0 0 0-.895.23 1.68 1.68 0 0 0-.646.675c-.16.295-.24.641-.24 1.04 0 .404.08.757.24 1.06.161.294.376.522.646.683.269.154.568.231.895.231.328 0 .626-.077.896-.231a1.72 1.72 0 0 0 .655-.684c.161-.302.241-.652.241-1.05zm7.048-2.63v5.278h-.877v-.78c-.167.27-.401.481-.703.635a2.164 2.164 0 0 1-.982.222c-.411 0-.78-.084-1.108-.25a1.922 1.922 0 0 1-.78-.771c-.186-.34-.279-.755-.279-1.242v-3.092h.867v2.976c0 .52.131.921.395 1.204.263.276.622.414 1.078.414.469 0 .838-.144 1.108-.433.269-.29.404-.71.404-1.262v-2.9h.877zm6.295 2.437c0 .167-.009.343-.029.53h-4.218c.032.52.208.927.53 1.222.327.29.722.434 1.184.434.379 0 .694-.087.944-.26.257-.18.437-.417.539-.713h.944a2.294 2.294 0 0 1-.847 1.243c-.424.314-.951.471-1.58.471a2.69 2.69 0 0 1-1.348-.337 2.404 2.404 0 0 1-.925-.953c-.225-.417-.337-.899-.337-1.445s.109-1.024.328-1.435c.218-.41.523-.725.915-.944a2.732 2.732 0 0 1 1.367-.337c.501 0 .944.11 1.329.328.386.218.681.52.886.905a2.6 2.6 0 0 1 .318 1.29zm-.905-.183c0-.334-.074-.62-.222-.858a1.393 1.393 0 0 0-.606-.548 1.812 1.812 0 0 0-.838-.193c-.443 0-.822.141-1.137.424-.308.282-.485.674-.53 1.175h3.333zm2.938-4.103v7.127h-.876v-7.127h.876zm-105.58 35.789h-3.381v2.196c.148-.206.366-.373.655-.501.289-.135.6-.203.934-.203.533 0 .966.113 1.3.338.334.218.572.504.713.857.148.346.222.716.222 1.107 0 .463-.087.877-.26 1.243-.174.366-.44.655-.8.867-.353.211-.793.317-1.319.317-.675 0-1.22-.173-1.638-.52-.417-.346-.671-.809-.761-1.387h.858c.083.366.26.652.529.858.27.205.61.308 1.021.308.508 0 .89-.151 1.146-.453.257-.308.386-.713.386-1.213 0-.501-.129-.886-.386-1.156-.256-.276-.635-.414-1.136-.414-.34 0-.639.083-.896.25-.25.16-.433.382-.549.665h-.828v-3.93h4.19v.77zm2.734 4.334c.064.366.212.648.443.847.238.2.556.299.954.299.533 0 .924-.209 1.175-.626.256-.418.378-1.12.366-2.11-.135.29-.36.517-.675.684-.314.16-.664.241-1.049.241-.431 0-.816-.087-1.156-.26a1.967 1.967 0 0 1-.79-.78c-.192-.34-.289-.751-.289-1.233 0-.687.199-1.24.597-1.656.398-.424.963-.636 1.695-.636.899 0 1.529.292 1.888.876.366.585.549 1.455.549 2.61 0 .81-.074 1.477-.221 2.004-.142.526-.386.927-.732 1.204-.341.276-.809.414-1.407.414-.654 0-1.165-.177-1.531-.53-.366-.353-.575-.803-.626-1.348h.809zm1.358-1.406c.43 0 .783-.132 1.06-.395.276-.27.414-.633.414-1.089 0-.481-.135-.87-.405-1.165-.269-.295-.648-.443-1.136-.443-.45 0-.809.141-1.079.424-.263.282-.395.655-.395 1.117 0 .469.132.844.395 1.127.263.282.645.424 1.146.424zm5.957-2.12c0-.436.131-.783.395-1.04.263-.263.6-.394 1.011-.394.411 0 .748.131 1.011.394.264.257.395.604.395 1.04 0 .444-.131.797-.395 1.06-.263.257-.6.385-1.011.385-.411 0-.748-.128-1.011-.385-.264-.263-.395-.616-.395-1.06zm5.624-1.329-3.9 6.723h-.867l3.901-6.722h.866zm-4.218.434a.642.642 0 0 0-.52.231c-.122.148-.183.37-.183.665 0 .295.061.52.183.674a.642.642 0 0 0 .52.231.642.642 0 0 0 .52-.231c.129-.16.193-.385.193-.674 0-.296-.064-.517-.193-.665a.642.642 0 0 0-.52-.231zm2.283 4.96c0-.443.131-.793.394-1.05.264-.263.601-.395 1.012-.395.411 0 .745.132 1.001.395.264.257.395.607.395 1.05 0 .437-.131.787-.395 1.05-.256.263-.59.395-1.001.395-.411 0-.748-.129-1.012-.386-.263-.263-.394-.616-.394-1.059zm1.396-.896a.641.641 0 0 0-.52.231c-.128.148-.193.37-.193.665 0 .289.065.51.193.665a.654.654 0 0 0 .52.221.654.654 0 0 0 .52-.221c.129-.155.193-.376.193-.665 0-.295-.064-.517-.193-.665a.641.641 0 0 0-.52-.23zm7.43 2.312c-.495 0-.944-.113-1.349-.337a2.45 2.45 0 0 1-.944-.954c-.224-.417-.337-.899-.337-1.445 0-.539.116-1.014.347-1.425.238-.417.559-.735.963-.953a2.75 2.75 0 0 1 1.358-.338c.501 0 .954.113 1.358.338.405.218.722.532.954.944.237.41.356.889.356 1.434 0 .546-.122 1.028-.366 1.445a2.485 2.485 0 0 1-.973.954 2.803 2.803 0 0 1-1.367.337zm0-.77c.314 0 .61-.075.886-.222a1.66 1.66 0 0 0 .664-.665c.174-.295.26-.655.26-1.079 0-.423-.083-.783-.25-1.078a1.606 1.606 0 0 0-.655-.655 1.797 1.797 0 0 0-.877-.222c-.321 0-.616.074-.886.222-.263.141-.475.36-.635.655-.161.295-.241.655-.241 1.078 0 .43.077.793.231 1.089.161.295.372.517.636.664.263.142.552.212.867.212zm6.006-3.873h-1.108v4.556h-.876v-4.555h-.684v-.723h.684v-.375c0-.591.151-1.021.453-1.291.308-.276.799-.414 1.473-.414v.732c-.385 0-.658.077-.818.231-.154.148-.232.395-.232.742v.375h1.108v.722zm3.262 1.907c0-.545.109-1.02.328-1.425.218-.41.52-.729.905-.953a2.643 2.643 0 0 1 1.339-.338c.648 0 1.181.158 1.598.472.424.315.704.752.838 1.31h-.943a1.35 1.35 0 0 0-.53-.76c-.257-.187-.578-.28-.963-.28-.501 0-.906.173-1.214.52-.308.34-.462.825-.462 1.454 0 .636.154 1.127.462 1.474.308.347.713.52 1.214.52.385 0 .706-.09.963-.27a1.37 1.37 0 0 0 .53-.77h.943a2.34 2.34 0 0 1-.847 1.3c-.424.321-.954.482-1.589.482a2.65 2.65 0 0 1-1.339-.337 2.357 2.357 0 0 1-.905-.954c-.219-.41-.328-.892-.328-1.445zm8.48 2.736c-.495 0-.944-.113-1.349-.337a2.457 2.457 0 0 1-.944-.954c-.224-.417-.337-.899-.337-1.445 0-.539.116-1.014.347-1.425.238-.417.559-.735.963-.953a2.75 2.75 0 0 1 1.358-.338c.501 0 .954.113 1.358.338.405.218.723.532.954.944.237.41.356.889.356 1.434 0 .546-.122 1.028-.366 1.445a2.478 2.478 0 0 1-.973.954 2.8 2.8 0 0 1-1.367.337zm0-.77c.314 0 .61-.075.886-.222a1.66 1.66 0 0 0 .664-.665c.174-.295.26-.655.26-1.079 0-.423-.083-.783-.25-1.078a1.606 1.606 0 0 0-.655-.655 1.796 1.796 0 0 0-.876-.222 1.81 1.81 0 0 0-.886.222 1.56 1.56 0 0 0-.636.655c-.161.295-.241.655-.241 1.078 0 .43.077.793.231 1.089.161.295.373.517.636.664.263.142.552.212.867.212zm10.205-4.691c.411 0 .777.087 1.098.26.321.167.575.42.761.76.186.341.28.755.28 1.243v3.111h-.867v-2.986c0-.526-.132-.927-.395-1.204-.257-.282-.607-.423-1.05-.423-.456 0-.819.147-1.088.443-.27.289-.405.71-.405 1.261v2.91h-.867v-2.987c0-.526-.131-.927-.395-1.204-.256-.282-.606-.423-1.049-.423-.456 0-.819.147-1.089.443-.269.289-.404.71-.404 1.261v2.91h-.877v-5.28h.877v.761a1.74 1.74 0 0 1 .693-.636c.296-.147.62-.221.973-.221.443 0 .835.1 1.175.299.34.198.594.49.761.876.148-.373.392-.661.732-.867.34-.205.719-.308 1.136-.308zm4.453 1.069a2.06 2.06 0 0 1 .77-.751 2.318 2.318 0 0 1 1.204-.308c.469 0 .893.112 1.271.337.386.224.687.542.906.953.218.405.327.877.327 1.416a3.03 3.03 0 0 1-.327 1.425 2.411 2.411 0 0 1-2.177 1.32c-.449 0-.848-.1-1.194-.299a2.206 2.206 0 0 1-.78-.76v3.476h-.877v-7.782h.877v.973zm3.582 1.647c0-.398-.08-.745-.24-1.04a1.662 1.662 0 0 0-.655-.674 1.774 1.774 0 0 0-.896-.232c-.321 0-.62.08-.896.241a1.731 1.731 0 0 0-.655.684 2.13 2.13 0 0 0-.24 1.03c0 .399.08.748.24 1.05.167.296.386.524.655.684.276.154.575.231.896.231.328 0 .626-.077.896-.23.276-.161.494-.39.655-.685.16-.302.24-.655.24-1.06zm2.926-4.469v7.127h-.876v-7.127h.876zm6.31 4.286c0 .167-.01.343-.029.53h-4.219c.032.52.209.927.53 1.223.327.289.722.433 1.185.433.378 0 .693-.087.943-.26a1.42 1.42 0 0 0 .54-.713h.944a2.296 2.296 0 0 1-.848 1.243c-.424.314-.95.472-1.579.472-.501 0-.951-.113-1.349-.337a2.402 2.402 0 0 1-.924-.954c-.225-.417-.337-.899-.337-1.445 0-.545.109-1.024.327-1.434a2.27 2.27 0 0 1 .915-.944 2.734 2.734 0 0 1 1.368-.338c.5 0 .943.11 1.329.328.385.218.68.52.886.905.212.38.318.81.318 1.29zm-.906-.183c0-.334-.074-.62-.221-.857a1.396 1.396 0 0 0-.607-.55 1.81 1.81 0 0 0-.838-.192 1.64 1.64 0 0 0-1.136.424c-.309.282-.485.674-.53 1.175h3.332zm3.132-1.532v3.111c0 .257.054.44.163.55.109.102.299.154.568.154h.646v.741h-.79c-.488 0-.854-.112-1.098-.337-.244-.225-.366-.594-.366-1.108v-3.11h-.684v-.723h.684v-1.329h.877v1.33h1.377v.721h-1.377zm7.254 1.715c0 .167-.009.343-.029.53h-4.218c.032.52.209.927.53 1.223.327.289.722.433 1.184.433.379 0 .694-.087.944-.26.257-.18.437-.417.539-.713h.944a2.289 2.289 0 0 1-.847 1.243c-.424.314-.95.472-1.58.472a2.7 2.7 0 0 1-1.348-.337 2.404 2.404 0 0 1-.925-.954c-.224-.417-.337-.899-.337-1.445 0-.545.109-1.024.328-1.434a2.27 2.27 0 0 1 .915-.944 2.733 2.733 0 0 1 1.367-.338c.501 0 .944.11 1.329.328.386.218.681.52.886.905.212.38.318.81.318 1.29zm-.905-.183c0-.334-.074-.62-.222-.857a1.388 1.388 0 0 0-.606-.55 1.812 1.812 0 0 0-.838-.192c-.443 0-.822.141-1.137.424-.308.282-.484.674-.529 1.175h3.332zm-79.532 34.267c-.36-.141-.636-.347-.828-.616-.193-.27-.289-.598-.289-.983 0-.346.086-.658.26-.934.173-.282.43-.504.77-.665.347-.166.764-.25 1.252-.25s.902.084 1.243.25c.346.161.606.383.78.665.18.276.269.588.269.934 0 .373-.099.7-.298.983a1.773 1.773 0 0 1-.819.616c.398.122.713.337.944.645.238.302.356.668.356 1.098 0 .418-.102.784-.308 1.098a2.047 2.047 0 0 1-.876.723c-.373.167-.803.25-1.291.25-.488 0-.918-.083-1.29-.25a2.079 2.079 0 0 1-.858-.723 1.963 1.963 0 0 1-.308-1.098c0-.43.116-.799.347-1.107.231-.309.546-.52.944-.636zm2.61-1.493c0-.391-.128-.693-.385-.905-.257-.212-.61-.318-1.06-.318-.443 0-.793.106-1.05.318-.256.212-.385.517-.385.915 0 .359.132.648.395.867.27.218.616.327 1.04.327.43 0 .777-.109 1.04-.327.27-.225.405-.517.405-.877zm-1.445 1.878c-.475 0-.863.113-1.165.337-.302.219-.453.549-.453.992 0 .411.145.742.434.992.295.251.69.376 1.184.376.495 0 .886-.125 1.175-.376.289-.25.434-.581.434-.992 0-.43-.148-.757-.443-.982-.296-.231-.684-.347-1.166-.347zm7.421-1.319v3.111c0 .257.054.44.163.549.11.102.299.154.569.154h.645v.741h-.79c-.488 0-.854-.112-1.098-.337-.244-.224-.366-.594-.366-1.107v-3.111h-.684v-.723h.684v-1.329h.877v1.329h1.377v.723h-1.377zm2.111 1.897c0-.539.11-1.011.328-1.416.218-.411.517-.728.896-.953a2.492 2.492 0 0 1 1.281-.337c.462 0 .863.099 1.203.298.341.199.594.45.761.752v-.964h.886v5.278h-.886v-.982a2.082 2.082 0 0 1-.78.77c-.34.2-.738.299-1.194.299a2.39 2.39 0 0 1-1.271-.347 2.428 2.428 0 0 1-.896-.972 3.037 3.037 0 0 1-.328-1.426zm4.469.01c0-.398-.08-.745-.24-1.04a1.665 1.665 0 0 0-.655-.675c-.27-.16-.569-.24-.896-.24-.328 0-.626.077-.896.231a1.678 1.678 0 0 0-.645.674c-.161.295-.241.642-.241 1.04 0 .405.08.758.241 1.06.16.295.376.523.645.683.27.154.568.232.896.232.327 0 .626-.078.896-.232.276-.16.494-.388.655-.683.16-.302.24-.652.24-1.05zm4.236 2.735a2.78 2.78 0 0 1-1.088-.202 1.888 1.888 0 0 1-.761-.578 1.56 1.56 0 0 1-.308-.857h.905a.895.895 0 0 0 .366.645c.225.167.517.25.876.25.334 0 .597-.073.79-.221a.677.677 0 0 0 .289-.559.54.54 0 0 0-.308-.51c-.206-.116-.524-.228-.954-.337a8.1 8.1 0 0 1-.963-.308 1.836 1.836 0 0 1-.635-.472c-.174-.212-.261-.488-.261-.829 0-.269.081-.517.241-.741a1.6 1.6 0 0 1 .684-.53 2.408 2.408 0 0 1 1.011-.202c.585 0 1.057.147 1.416.443.36.295.552.7.578 1.213h-.876a.9.9 0 0 0-.338-.664c-.199-.167-.468-.251-.809-.251-.314 0-.565.068-.751.203a.623.623 0 0 0-.279.529c0 .174.054.318.164.434.115.109.256.199.423.269.174.065.411.138.713.222.379.103.687.205.925.308.237.096.44.244.606.443.174.199.264.459.27.78 0 .289-.08.549-.241.78-.16.232-.388.415-.683.549a2.437 2.437 0 0 1-1.002.193zm6.111-.087-2.071-2.33v2.33H136v-7.127h.877v4.19l2.032-2.341h1.223l-2.485 2.63 2.495 2.648h-1.194zm5.646-4.555v3.111c0 .257.054.44.164.549.109.102.298.154.568.154h.645v.741h-.79c-.488 0-.854-.112-1.098-.337-.244-.224-.366-.594-.366-1.107v-3.111h-.683v-.723h.683v-1.329h.877v1.329h1.377v.723h-1.377zm4.741 4.642c-.495 0-.944-.112-1.348-.337a2.446 2.446 0 0 1-.944-.954c-.225-.417-.337-.898-.337-1.444 0-.54.115-1.015.346-1.426.238-.417.559-.735.963-.953a2.75 2.75 0 0 1 1.358-.337c.501 0 .954.112 1.358.337.405.218.723.533.954.944.237.411.356.889.356 1.435s-.122 1.027-.366 1.444a2.483 2.483 0 0 1-.972.954 2.801 2.801 0 0 1-1.368.337zm0-.77c.314 0 .61-.074.886-.222.276-.148.498-.369.665-.665.173-.295.26-.654.26-1.078 0-.424-.084-.784-.251-1.079a1.607 1.607 0 0 0-.655-.655 1.79 1.79 0 0 0-.876-.221c-.321 0-.617.073-.886.221-.264.141-.475.36-.636.655-.16.295-.241.655-.241 1.079 0 .43.077.793.231 1.088.161.295.373.517.636.665.263.141.552.212.867.212zm7.303-3.612c.18-.315.443-.572.789-.771a2.339 2.339 0 0 1 1.185-.298c.475 0 .902.112 1.281.337.379.225.677.542.896.953.218.405.327.877.327 1.416 0 .533-.109 1.008-.327 1.426a2.41 2.41 0 0 1-.906.972 2.39 2.39 0 0 1-1.271.347c-.456 0-.857-.099-1.204-.299a2.037 2.037 0 0 1-.77-.76v.972h-.877v-7.127h.877v2.832zm3.583 1.637a2.15 2.15 0 0 0-.241-1.04 1.663 1.663 0 0 0-.655-.674 1.775 1.775 0 0 0-.896-.231c-.321 0-.619.08-.896.24a1.728 1.728 0 0 0-.654.684 2.122 2.122 0 0 0-.241 1.031c0 .398.08.748.241 1.05.166.295.385.523.654.683.277.154.575.232.896.232.328 0 .626-.078.896-.232.276-.16.494-.388.655-.683.16-.302.241-.655.241-1.06zm6.864-.183c0 .167-.009.344-.028.53h-4.219c.032.52.209.928.53 1.223.327.289.722.433 1.184.433.379 0 .694-.086.944-.26.257-.179.437-.417.54-.712h.944a2.295 2.295 0 0 1-.848 1.242c-.424.315-.95.472-1.58.472-.5 0-.95-.112-1.348-.337a2.398 2.398 0 0 1-.924-.954c-.225-.417-.338-.898-.338-1.444 0-.546.11-1.024.328-1.435a2.27 2.27 0 0 1 .915-.944 2.73 2.73 0 0 1 1.367-.337c.501 0 .944.109 1.33.327.385.219.68.52.886.906.212.378.317.809.317 1.29zm-.905-.183c0-.334-.074-.619-.221-.857a1.396 1.396 0 0 0-.607-.549 1.817 1.817 0 0 0-.838-.193c-.443 0-.822.142-1.137.424-.308.283-.484.674-.529 1.175h3.332zm4.303.376c0-.546.109-1.021.327-1.426.218-.411.52-.728.905-.953a2.64 2.64 0 0 1 1.339-.337c.649 0 1.182.157 1.599.472.424.314.703.751.838 1.31h-.944a1.345 1.345 0 0 0-.53-.761c-.257-.187-.578-.28-.963-.28-.501 0-.905.174-1.213.52-.309.341-.463.826-.463 1.455 0 .635.154 1.127.463 1.473.308.347.712.52 1.213.52.385 0 .706-.089.963-.269.257-.18.434-.437.53-.771h.944c-.141.54-.424.973-.848 1.3-.423.322-.953.482-1.589.482a2.64 2.64 0 0 1-1.339-.337 2.36 2.36 0 0 1-.905-.954c-.218-.41-.327-.892-.327-1.444zm8.479 2.735c-.494 0-.944-.112-1.348-.337a2.453 2.453 0 0 1-.944-.954c-.225-.417-.337-.898-.337-1.444 0-.54.115-1.015.347-1.426.237-.417.558-.735.963-.953a2.744 2.744 0 0 1 1.358-.337c.5 0 .953.112 1.358.337.404.218.722.533.953.944.238.411.356.889.356 1.435s-.122 1.027-.365 1.444a2.485 2.485 0 0 1-.973.954 2.801 2.801 0 0 1-1.368.337zm0-.77c.315 0 .61-.074.886-.222.276-.148.498-.369.665-.665.173-.295.26-.654.26-1.078 0-.424-.084-.784-.251-1.079a1.607 1.607 0 0 0-.655-.655 1.787 1.787 0 0 0-.876-.221c-.321 0-.616.073-.886.221-.263.141-.475.36-.636.655-.16.295-.24.655-.24 1.079 0 .43.077.793.231 1.088.16.295.372.517.635.665.264.141.553.212.867.212zm10.206-4.691c.411 0 .777.087 1.098.26.321.167.574.421.761.761.186.34.279.754.279 1.242v3.111h-.867v-2.985c0-.527-.131-.928-.395-1.204-.257-.283-.607-.424-1.05-.424-.455 0-.818.148-1.088.443-.27.289-.404.71-.404 1.262v2.908h-.867v-2.985c0-.527-.132-.928-.395-1.204-.257-.283-.607-.424-1.05-.424-.456 0-.819.148-1.088.443-.27.289-.405.71-.405 1.262v2.908h-.876v-5.278h.876v.761a1.74 1.74 0 0 1 .694-.635c.295-.148.619-.222.972-.222.444 0 .835.1 1.175.299.341.199.594.491.761.876.148-.372.392-.661.732-.867a2.162 2.162 0 0 1 1.137-.308zm4.452 1.069c.173-.302.43-.552.771-.751a2.318 2.318 0 0 1 1.203-.308c.469 0 .893.112 1.272.337.385.225.687.542.905.953.218.405.328.877.328 1.416 0 .533-.11 1.008-.328 1.426-.218.417-.52.741-.905.972a2.396 2.396 0 0 1-1.272.347c-.449 0-.847-.099-1.194-.299-.34-.205-.6-.459-.78-.76v3.476h-.876v-7.782h.876v.973zm3.583 1.647c0-.398-.08-.745-.241-1.04a1.656 1.656 0 0 0-.655-.674 1.772 1.772 0 0 0-.896-.231c-.321 0-.619.08-.895.24a1.73 1.73 0 0 0-.655.684 2.122 2.122 0 0 0-.241 1.031c0 .398.08.748.241 1.05.167.295.385.523.655.683.276.154.574.232.895.232.328 0 .627-.078.896-.232.276-.16.495-.388.655-.683a2.22 2.22 0 0 0 .241-1.06zm2.926-4.469v7.127h-.877v-7.127h.877zm6.309 4.286c0 .167-.01.344-.029.53h-4.218c.032.52.208.928.529 1.223a1.73 1.73 0 0 0 1.185.433c.379 0 .693-.086.944-.26.257-.179.436-.417.539-.712h.944a2.294 2.294 0 0 1-.847 1.242c-.424.315-.951.472-1.58.472a2.69 2.69 0 0 1-1.348-.337 2.407 2.407 0 0 1-.925-.954c-.225-.417-.337-.898-.337-1.444 0-.546.109-1.024.327-1.435.219-.411.524-.726.915-.944a2.731 2.731 0 0 1 1.368-.337c.501 0 .944.109 1.329.327.385.219.681.52.886.906.212.378.318.809.318 1.29zm-.905-.183a1.59 1.59 0 0 0-.222-.857 1.396 1.396 0 0 0-.607-.549 1.811 1.811 0 0 0-.838-.193c-.443 0-.821.142-1.136.424-.308.283-.485.674-.53 1.175h3.333zm3.131-1.531v3.111c0 .257.055.44.164.549.109.102.298.154.568.154h.645v.741h-.79c-.488 0-.854-.112-1.098-.337-.244-.224-.366-.594-.366-1.107v-3.111h-.683v-.723h.683v-1.329h.877v1.329h1.377v.723h-1.377zm7.255 1.714c0 .167-.01.344-.029.53h-4.219c.032.52.209.928.53 1.223.328.289.722.433 1.185.433.379 0 .693-.086.944-.26a1.42 1.42 0 0 0 .539-.712h.944a2.29 2.29 0 0 1-.848 1.242c-.424.315-.95.472-1.579.472-.501 0-.951-.112-1.349-.337a2.404 2.404 0 0 1-.924-.954c-.225-.417-.337-.898-.337-1.444 0-.546.109-1.024.327-1.435a2.27 2.27 0 0 1 .915-.944 2.731 2.731 0 0 1 1.368-.337c.501 0 .944.109 1.329.327.385.219.68.52.886.906.212.378.318.809.318 1.29zm-.906-.183c0-.334-.073-.619-.221-.857a1.396 1.396 0 0 0-.607-.549 1.814 1.814 0 0 0-.838-.193c-.443 0-.822.142-1.136.424-.308.283-.485.674-.53 1.175h3.332zm1.735.366c0-.539.109-1.011.328-1.416.218-.411.516-.728.895-.953a2.515 2.515 0 0 1 1.291-.337c.411 0 .793.096 1.146.289.353.186.623.433.809.741v-2.793h.886v7.127h-.886v-.992c-.173.315-.43.575-.77.78-.341.2-.739.299-1.195.299-.468 0-.895-.116-1.281-.347a2.426 2.426 0 0 1-.895-.972 3.025 3.025 0 0 1-.328-1.426zm4.469.01c0-.398-.08-.745-.241-1.04a1.659 1.659 0 0 0-.655-.675 1.72 1.72 0 0 0-.895-.24c-.328 0-.626.077-.896.231-.27.154-.485.379-.645.674-.161.295-.241.642-.241 1.04 0 .405.08.758.241 1.06.16.295.375.523.645.683.27.154.568.232.896.232.327 0 .626-.078.895-.232.276-.16.495-.388.655-.683.161-.302.241-.652.241-1.05zm-109.159 36.81a45.884 45.884 0 0 0 1.916-1.609 7.839 7.839 0 0 0 1.166-1.319c.321-.463.481-.915.481-1.358 0-.418-.103-.745-.308-.983-.199-.244-.523-.366-.973-.366-.436 0-.777.138-1.021.414-.237.27-.366.633-.385 1.089h-.848c.026-.719.244-1.275.655-1.666.411-.392.941-.588 1.59-.588.661 0 1.184.183 1.569.549.392.366.588.87.588 1.512 0 .533-.161 1.053-.482 1.56a6.853 6.853 0 0 1-1.078 1.329c-.405.379-.922.822-1.551 1.33h3.313v.732h-4.632v-.626zm9.427-3.853v3.111c0 .257.054.44.163.549.109.103.299.154.569.154h.645v.742h-.79c-.488 0-.854-.113-1.098-.337-.244-.225-.366-.594-.366-1.108v-3.111h-.684v-.722h.684v-1.329h.877v1.329h1.377v.722h-1.377zm2.111 1.897c0-.539.109-1.011.328-1.415.218-.411.517-.729.895-.954a2.497 2.497 0 0 1 1.281-.337c.463 0 .864.1 1.204.299.341.199.594.449.761.751v-.963h.886v5.278h-.886v-.983a2.092 2.092 0 0 1-.78.771c-.34.199-.738.298-1.194.298-.469 0-.893-.115-1.272-.346a2.442 2.442 0 0 1-.895-.973 3.025 3.025 0 0 1-.328-1.426zm4.469.01c0-.398-.08-.745-.241-1.04a1.65 1.65 0 0 0-.655-.674 1.71 1.71 0 0 0-.895-.241c-.328 0-.626.077-.896.231-.27.154-.485.379-.645.674a2.142 2.142 0 0 0-.241 1.04c0 .405.08.758.241 1.06.16.295.375.523.645.684.27.154.568.231.896.231.327 0 .626-.077.895-.231a1.72 1.72 0 0 0 .655-.684c.161-.302.241-.652.241-1.05zm4.236 2.735c-.405 0-.767-.067-1.089-.202a1.885 1.885 0 0 1-.76-.578 1.56 1.56 0 0 1-.309-.857h.906a.889.889 0 0 0 .366.645c.224.167.517.251.876.251.334 0 .597-.074.79-.222a.676.676 0 0 0 .289-.558.541.541 0 0 0-.308-.511c-.206-.115-.524-.228-.954-.337a7.862 7.862 0 0 1-.963-.308 1.836 1.836 0 0 1-.636-.472c-.173-.212-.26-.488-.26-.828 0-.27.081-.517.241-.742.161-.225.389-.401.684-.53a2.405 2.405 0 0 1 1.011-.202c.585 0 1.056.148 1.416.443.36.295.552.7.578 1.214h-.877a.898.898 0 0 0-.337-.665c-.199-.167-.468-.25-.809-.25-.314 0-.565.067-.751.202a.625.625 0 0 0-.279.53c0 .173.054.317.164.433.115.109.256.199.423.27.174.064.411.138.713.221.379.103.687.206.925.308.237.097.439.244.606.443.174.199.264.46.27.781 0 .289-.08.549-.241.78a1.63 1.63 0 0 1-.684.549 2.445 2.445 0 0 1-1.001.192zm6.11-.086-2.07-2.331v2.331h-.877v-7.127h.877v4.189l2.032-2.34h1.223l-2.485 2.629 2.495 2.649h-1.195zm7.621.067a3.417 3.417 0 0 1-1.705-.433 3.295 3.295 0 0 1-1.223-1.224 3.56 3.56 0 0 1-.443-1.772c0-.655.148-1.242.443-1.762a3.2 3.2 0 0 1 1.223-1.223 3.354 3.354 0 0 1 1.705-.443c.629 0 1.201.147 1.714.443.514.289.919.693 1.214 1.213.295.52.443 1.111.443 1.772 0 .662-.148 1.252-.443 1.772-.295.521-.7.928-1.214 1.224a3.433 3.433 0 0 1-1.714.433zm0-.761c.469 0 .889-.109 1.262-.327.379-.219.674-.53.886-.935.218-.404.327-.873.327-1.406 0-.539-.109-1.008-.327-1.406a2.282 2.282 0 0 0-.877-.934 2.468 2.468 0 0 0-1.271-.328c-.475 0-.899.11-1.271.328-.373.218-.668.53-.886.934-.212.398-.318.867-.318 1.406 0 .533.106 1.002.318 1.406.218.405.513.716.886.935.379.218.802.327 1.271.327zm6.493-.115 1.637-4.469h.934l-2.07 5.278h-1.021l-2.071-5.278h.944l1.647 4.469zm8.249-2.033c0 .167-.009.344-.028.53h-4.219c.032.52.209.928.53 1.223.327.289.722.434 1.184.434.379 0 .694-.087.944-.26.257-.18.437-.418.54-.713h.943a2.288 2.288 0 0 1-.847 1.242c-.424.315-.95.472-1.58.472-.5 0-.95-.112-1.348-.337a2.404 2.404 0 0 1-.925-.953c-.224-.418-.337-.899-.337-1.445s.11-1.024.328-1.435a2.27 2.27 0 0 1 .915-.944 2.73 2.73 0 0 1 1.367-.337c.501 0 .944.109 1.33.327.385.219.68.521.886.906.211.379.317.809.317 1.29zm-.905-.183a1.6 1.6 0 0 0-.221-.857 1.396 1.396 0 0 0-.607-.549 1.817 1.817 0 0 0-.838-.192c-.443 0-.822.141-1.137.423-.308.283-.484.675-.529 1.175h3.332zm2.939-1.396c.154-.302.372-.536.655-.703.289-.167.639-.251 1.049-.251v.906h-.231c-.982 0-1.473.533-1.473 1.599v2.87h-.877v-5.278h.877v.857zm2.389 1.762c0-.539.109-1.011.327-1.415.218-.411.517-.729.896-.954a2.509 2.509 0 0 1 1.29-.337c.411 0 .793.096 1.147.289.353.186.622.433.809.742v-2.793h.886v7.127h-.886v-.992a2.102 2.102 0 0 1-.771.78c-.34.199-.738.298-1.194.298-.469 0-.896-.115-1.281-.346a2.438 2.438 0 0 1-.896-.973 3.037 3.037 0 0 1-.327-1.426zm4.469.01a2.15 2.15 0 0 0-.241-1.04 1.663 1.663 0 0 0-.655-.674 1.714 1.714 0 0 0-.896-.241c-.327 0-.626.077-.896.231a1.685 1.685 0 0 0-.645.674c-.16.296-.241.642-.241 1.04 0 .405.081.758.241 1.06.161.295.376.523.645.684.27.154.569.231.896.231.328 0 .626-.077.896-.231.276-.161.494-.389.655-.684a2.21 2.21 0 0 0 .241-1.05zm7.048-2.629v5.278h-.877v-.781c-.167.27-.401.482-.703.636a2.16 2.16 0 0 1-.982.222c-.411 0-.78-.084-1.108-.251a1.92 1.92 0 0 1-.78-.77c-.186-.341-.279-.755-.279-1.243v-3.091h.866v2.976c0 .52.132.921.395 1.204.264.276.623.414 1.079.414.469 0 .838-.145 1.108-.434.269-.289.404-.709.404-1.261v-2.899h.877zm6.295 2.436c0 .167-.01.344-.029.53h-4.218c.032.52.208.928.529 1.223.328.289.723.434 1.185.434.379 0 .693-.087.944-.26.257-.18.436-.418.539-.713h.944a2.29 2.29 0 0 1-.848 1.242c-.423.315-.95.472-1.579.472a2.69 2.69 0 0 1-1.348-.337 2.404 2.404 0 0 1-.925-.953c-.225-.418-.337-.899-.337-1.445s.109-1.024.327-1.435c.219-.411.524-.726.915-.944a2.731 2.731 0 0 1 1.368-.337c.501 0 .944.109 1.329.327.385.219.681.521.886.906.212.379.318.809.318 1.29zm-.905-.183c0-.333-.074-.619-.222-.857a1.396 1.396 0 0 0-.607-.549 1.81 1.81 0 0 0-.838-.192c-.443 0-.821.141-1.136.423-.308.283-.485.675-.53 1.175h3.333z"/><path stroke="#E7E9EF" stroke-width=".333" d="M14.531 68.906h206.164M14.527 105.483h206.164m-206.16 33.254h206.164"/><path fill="#F6F7F9" d="M2.504 15.206c0-7.346 5.955-13.3 13.3-13.3h202.839c7.346 0 13.301 5.954 13.301 13.3v19.951H2.504v-19.95z"/><path fill="#0D0D0D" d="M39.978 22.648a4.01 4.01 0 0 1-1.532-.287 3.604 3.604 0 0 1-1.224-.82 3.835 3.835 0 0 1-.798-1.255 4.521 4.521 0 0 1-.276-1.607c0-.773.163-1.45.49-2.032a3.493 3.493 0 0 1 1.35-1.373c.582-.333 1.242-.5 1.98-.5.752 0 1.415.167 1.99.5a3.474 3.474 0 0 1 1.361 1.373c.327.589.49 1.27.49 2.043 0 .582-.096 1.114-.287 1.596a3.627 3.627 0 0 1-2.011 2.076 4.009 4.009 0 0 1-1.533.286zm-.01-1.128c.482 0 .904-.12 1.266-.361a2.43 2.43 0 0 0 .862-1c.206-.433.308-.93.308-1.49 0-.553-.103-1.036-.308-1.447a2.226 2.226 0 0 0-.851-.969c-.362-.234-.788-.35-1.277-.35a2.33 2.33 0 0 0-1.277.35 2.262 2.262 0 0 0-.84.958c-.2.411-.299.897-.299 1.458 0 .567.1 1.064.298 1.49.206.425.49.759.851 1 .37.24.791.361 1.267.361zm6.416 1.022-2.17-5.427h1.447l1.734 4.99h-.713l1.735-4.99h1.404l-2.181 5.427h-1.256zm6.475.106c-.575 0-1.078-.12-1.51-.361a2.606 2.606 0 0 1-1.001-1c-.234-.426-.351-.916-.351-1.469s.117-1.04.35-1.458a2.532 2.532 0 0 1 1.001-.99c.426-.24.922-.361 1.49-.361.539 0 1.007.113 1.404.34.398.22.706.532.926.937.22.404.33.876.33 1.415a3.387 3.387 0 0 1-.043.532h-4.628v-.936h3.596l-.276.255c0-.51-.117-.894-.352-1.15-.234-.255-.56-.382-.979-.382-.454 0-.815.156-1.085.468-.262.312-.394.762-.394 1.351 0 .582.132 1.029.394 1.341.27.305.65.457 1.139.457.284 0 .532-.053.745-.16a.983.983 0 0 0 .468-.489h1.266a2.4 2.4 0 0 1-.904 1.213c-.419.298-.947.447-1.586.447zm3.642-.106v-5.427h1.31v1.309h.031v4.118h-1.34zm1.341-2.83-.138-1.288c.127-.461.344-.812.649-1.053.305-.242.67-.362 1.096-.362.149 0 .255.014.319.042v1.267a.414.414 0 0 0-.149-.022 2.195 2.195 0 0 0-.234-.01c-.518 0-.904.113-1.16.34-.255.227-.383.589-.383 1.086zm4.452 2.83-2.171-5.427h1.447l1.734 4.99h-.713l1.735-4.99h1.404l-2.18 5.427h-1.256zm4.11 0v-5.427h1.34v5.427h-1.34zm-.064-6.32v-1.48h1.458v1.48H66.34zm5.244 6.426c-.574 0-1.078-.12-1.51-.361a2.606 2.606 0 0 1-1.001-1c-.234-.426-.351-.916-.351-1.469s.117-1.04.351-1.458a2.532 2.532 0 0 1 1-.99c.426-.24.923-.361 1.49-.361.54 0 1.007.113 1.404.34.398.22.706.532.926.937.22.404.33.876.33 1.415a3.343 3.343 0 0 1-.042.532h-4.63v-.936h3.597l-.276.255c0-.51-.117-.894-.351-1.15-.234-.255-.56-.382-.98-.382-.453 0-.815.156-1.085.468-.262.312-.393.762-.393 1.351 0 .582.13 1.029.393 1.341.27.305.65.457 1.139.457.284 0 .532-.053.745-.16a.982.982 0 0 0 .468-.489h1.266a2.4 2.4 0 0 1-.904 1.213c-.419.298-.947.447-1.586.447zm4.635-.106-1.66-5.427h1.405l.979 4.076h-.096l1.202-4.076h1.224l1.224 4.076h-.107l.969-4.076h1.372l-1.66 5.427h-1.255l-1.224-4.033h.106l-1.223 4.033h-1.256z"/><path fill="#666" d="M156.921 22.282c-.394 0-.758-.072-1.093-.215a2.689 2.689 0 0 1-.862-.615 2.815 2.815 0 0 1-.567-.934 3.422 3.422 0 0 1-.199-1.189c0-.43.066-.825.199-1.181a2.79 2.79 0 0 1 .559-.934c.245-.266.532-.47.862-.614a2.658 2.658 0 0 1 1.093-.224c.431 0 .817.088 1.157.264.346.175.628.423.846.742.224.32.362.692.415 1.117h-.654c-.064-.473-.253-.846-.567-1.117-.308-.277-.705-.415-1.189-.415a1.92 1.92 0 0 0-1.077.303 1.954 1.954 0 0 0-.718.83c-.171.351-.256.761-.256 1.23 0 .467.085.88.256 1.236.17.351.409.628.718.83.308.197.665.295 1.069.295.495 0 .899-.138 1.213-.415.319-.276.508-.649.567-1.117h.654a2.435 2.435 0 0 1-.415 1.117c-.218.32-.5.567-.846.743-.34.175-.729.263-1.165.263zm4.665 0a1.54 1.54 0 0 1-.711-.16 1.237 1.237 0 0 1-.486-.462 1.361 1.361 0 0 1-.176-.695v-2.833h.639v2.666c0 .308.074.54.223.694.154.154.372.231.654.231a1.24 1.24 0 0 0 1.142-.662c.117-.213.175-.455.175-.726l.104.965a1.573 1.573 0 0 1-.623.719 1.743 1.743 0 0 1-.941.263zm1.5-.08v-.958h-.04v-3.112h.639v4.07h-.599zm1.874 0v-4.07h.599v.958h.04v3.112h-.639zm2.746 0v-2.697c0-.309-.069-.535-.208-.679-.138-.143-.338-.215-.598-.215a1.273 1.273 0 0 0-1.134.662 1.52 1.52 0 0 0-.167.727l-.104-.966a1.63 1.63 0 0 1 .623-.718c.276-.176.577-.264.901-.264.394 0 .713.117.958.351.245.23.367.54.367.934v2.865h-.638zm2.745 0v-2.697c0-.309-.069-.535-.207-.679-.139-.143-.338-.215-.599-.215a1.267 1.267 0 0 0-1.133.662 1.51 1.51 0 0 0-.168.727l-.159-.966c.138-.303.351-.543.638-.718.287-.176.596-.264.926-.264.393 0 .715.117.965.351.25.23.375.54.375.934v2.865h-.638zm3.191.08c-.266 0-.503-.053-.71-.16a1.233 1.233 0 0 1-.487-.462 1.36 1.36 0 0 1-.175-.695v-2.833h.638v2.666c0 .308.075.54.224.694.154.154.372.231.654.231a1.24 1.24 0 0 0 1.141-.662c.117-.213.176-.455.176-.726l.103.965a1.57 1.57 0 0 1-.622.719 1.746 1.746 0 0 1-.942.263zm1.501-.08v-.958h-.04v-3.112h.638v4.07h-.598zm1.874 0v-5.746h.638v5.746h-.638zm4.415 0a2.363 2.363 0 0 1-.048-.311 10.718 10.718 0 0 1-.008-.447h-.04v-1.947c0-.309-.072-.535-.215-.679-.139-.149-.365-.223-.679-.223-.308 0-.555.064-.742.192a.678.678 0 0 0-.303.526h-.614a1.19 1.19 0 0 1 .494-.925c.304-.224.7-.336 1.189-.336.506 0 .881.12 1.126.36.244.239.367.598.367 1.077v1.955c0 .117.008.24.024.367.016.122.037.253.064.391h-.615zm-1.397.08c-.42 0-.755-.101-1.005-.303-.245-.208-.367-.49-.367-.846 0-.357.122-.633.367-.83.245-.197.601-.335 1.069-.415l1.421-.24v.527l-1.325.208c-.298.047-.524.127-.678.239a.563.563 0 0 0-.232.487c0 .207.069.364.208.47.143.107.354.16.63.16.357 0 .647-.08.87-.24.229-.164.343-.377.343-.638l.104.567a1.095 1.095 0 0 1-.503.63c-.244.15-.545.224-.902.224zm4.673-.008c-.452 0-.782-.101-.989-.303-.202-.208-.304-.506-.304-.894v-3.895l.639-.239v4.126c0 .229.058.396.175.503.118.106.309.16.575.16.106 0 .197-.006.271-.017a.935.935 0 0 0 .192-.055v.542a.903.903 0 0 1-.231.048 2.007 2.007 0 0 1-.328.024zm-2.13-3.6v-.542h2.689v.543h-2.689zm3.511 3.528v-4.07h.638v4.07h-.638zm-.048-4.996v-.75h.734v.75h-.734zm3.099 4.996-1.684-4.07h.687l1.404 3.64h-.255l1.397-3.64h.654l-1.684 4.07h-.519zm4.555.08c-.388 0-.731-.09-1.029-.271a1.975 1.975 0 0 1-.703-.758 2.308 2.308 0 0 1-.255-1.102c0-.415.082-.78.247-1.093a1.83 1.83 0 0 1 .711-.742 2.046 2.046 0 0 1 1.045-.264c.378 0 .705.083.982.248.282.165.497.396.646.694a2.265 2.265 0 0 1 .224 1.205.963.963 0 0 1-.016.16h-3.36v-.535h2.969l-.208.295c0-.49-.109-.864-.327-1.125-.213-.266-.516-.4-.91-.4-.404 0-.731.142-.981.424-.245.277-.368.652-.368 1.125 0 .484.123.873.368 1.165.25.288.582.431.997.431.261 0 .49-.056.686-.167.197-.117.341-.282.431-.495h.607a1.782 1.782 0 0 1-.67.886 1.873 1.873 0 0 1-1.086.319zm6.43-.008c-.671 0-1.205-.165-1.604-.495-.394-.33-.626-.8-.695-1.412h.639c.058.441.226.774.502.997.277.224.66.335 1.15.335.415 0 .726-.077.933-.231.213-.16.32-.391.32-.694 0-.261-.072-.469-.216-.623-.144-.154-.367-.282-.67-.383l-.966-.335c-.489-.17-.851-.375-1.085-.615-.234-.244-.351-.553-.351-.925 0-.309.077-.575.231-.798.154-.23.372-.407.654-.535.282-.128.61-.192.982-.192.575 0 1.035.152 1.381.455.346.298.545.724.598 1.277h-.638c-.069-.399-.213-.692-.431-.878-.213-.186-.522-.279-.926-.279-.383 0-.681.077-.894.231-.213.155-.319.373-.319.655 0 .24.075.43.224.574.149.144.38.27.694.376l1.029.359c.447.154.782.364 1.006.63.223.26.335.593.335.998 0 .479-.165.85-.495 1.117-.324.26-.787.391-1.388.391zm4.488 0c-.452 0-.782-.101-.99-.303-.202-.208-.303-.506-.303-.894v-3.895l.638-.239v4.126c0 .229.059.396.176.503.117.106.309.16.575.16.106 0 .197-.006.271-.017a.935.935 0 0 0 .192-.055v.542a.922.922 0 0 1-.232.048 2.003 2.003 0 0 1-.327.024zm-2.131-3.6v-.542h2.69v.543h-2.69zm6.009 3.528a2.363 2.363 0 0 1-.048-.311 10.718 10.718 0 0 1-.008-.447h-.04v-1.947c0-.309-.072-.535-.215-.679-.139-.149-.365-.223-.679-.223-.308 0-.556.064-.742.192a.678.678 0 0 0-.303.526h-.614a1.19 1.19 0 0 1 .494-.925c.304-.224.7-.336 1.189-.336.506 0 .881.12 1.126.36.244.239.367.598.367 1.077v1.955c0 .117.008.24.024.367.016.122.037.253.064.391h-.615zm-1.397.08c-.42 0-.755-.101-1.005-.303-.245-.208-.367-.49-.367-.846 0-.357.122-.633.367-.83.245-.197.601-.335 1.069-.415l1.421-.24v.527l-1.325.208c-.298.047-.524.127-.678.239a.563.563 0 0 0-.232.487c0 .207.069.364.208.47.143.107.354.16.63.16.357 0 .647-.08.87-.24.229-.164.343-.377.343-.638l.104.567a1.095 1.095 0 0 1-.503.63c-.244.15-.545.224-.902.224zm4.673-.008c-.452 0-.782-.101-.989-.303-.202-.208-.304-.506-.304-.894v-3.895l.639-.239v4.126c0 .229.058.396.175.503.118.106.309.16.575.16.106 0 .197-.006.271-.017a.935.935 0 0 0 .192-.055v.542a.903.903 0 0 1-.231.048 2.007 2.007 0 0 1-.328.024zm-2.13-3.6v-.542h2.689v.543h-2.689zm4.796 3.608c-.266 0-.502-.053-.71-.16a1.24 1.24 0 0 1-.487-.462 1.36 1.36 0 0 1-.175-.695v-2.833h.638v2.666c0 .308.075.54.224.694.154.154.372.231.654.231a1.3 1.3 0 0 0 .678-.175 1.23 1.23 0 0 0 .463-.487c.117-.213.176-.455.176-.726l.104.965a1.573 1.573 0 0 1-.623.719 1.746 1.746 0 0 1-.942.263zm1.501-.08v-.958h-.04v-3.112h.638v4.07h-.598zm3.239.08c-.5 0-.899-.114-1.197-.343-.298-.234-.468-.564-.511-.99h.615c.037.26.151.46.343.599.191.138.447.207.766.207.282 0 .503-.053.662-.16a.514.514 0 0 0 .24-.454.519.519 0 0 0-.136-.36c-.09-.106-.271-.194-.542-.263l-.655-.167c-.372-.096-.652-.242-.838-.44a1.025 1.025 0 0 1-.279-.718c0-.35.13-.627.391-.83.261-.207.614-.31 1.061-.31.442 0 .801.106 1.078.319.276.212.433.508.471.885h-.615a.74.74 0 0 0-.303-.502c-.165-.117-.383-.176-.655-.176-.26 0-.462.05-.606.152a.468.468 0 0 0-.216.415c0 .138.051.258.152.359.106.1.282.186.527.255l.638.176c.378.1.663.255.854.462.192.208.287.458.287.75 0 .357-.135.637-.407.839-.271.197-.646.295-1.125.295z"/><path fill="#B8FF33" d="m23.604 12.836 1.174 2.347c.158.325.582.633.94.7l2.123.35c1.357.224 1.673 1.206.699 2.189l-1.656 1.656c-.275.275-.433.816-.342 1.207l.475 2.048c.374 1.615-.491 2.247-1.915 1.398l-1.99-1.182c-.357-.216-.957-.216-1.314 0l-1.99 1.182c-1.423.84-2.289.216-1.914-1.398l.474-2.048c.092-.383-.067-.924-.341-1.207l-1.657-1.656c-.974-.974-.657-1.957.7-2.19l2.122-.35c.358-.058.782-.374.94-.699l1.174-2.347c.625-1.274 1.657-1.274 2.298 0z"/></svg>