<svg xmlns="http://www.w3.org/2000/svg" width="268" height="217" fill="none"><rect width="267.145" height="216.006" x=".422" y=".139" fill="#fff" rx="15.265"/><path fill="#F6F7F9" d="M2.328 17.312c0-8.43 6.835-15.265 15.265-15.265h232.798c8.431 0 15.266 6.834 15.266 15.265V40.21H2.328V17.312z"/><path fill="#0D0D0D" d="M43.753 25.55v-7.535h-2.919v-1.258h7.425v1.258H45.34v7.535h-1.587zm7.105.122c-.66 0-1.241-.139-1.746-.415a2.968 2.968 0 0 1-1.16-1.148c-.277-.497-.416-1.063-.416-1.698s.139-1.193.416-1.673a2.91 2.91 0 0 1 1.16-1.123c.505-.277 1.087-.416 1.746-.416.668 0 1.25.139 1.746.416.497.268.884.643 1.16 1.123.277.48.416 1.038.416 1.673s-.143 1.201-.428 1.698a2.967 2.967 0 0 1-1.16 1.148c-.496.276-1.075.415-1.734.415zm0-1.233c.326 0 .619-.082.88-.245.26-.17.463-.407.61-.708.147-.31.22-.672.22-1.087 0-.61-.163-1.09-.489-1.441-.317-.35-.724-.525-1.22-.525-.498 0-.909.175-1.234.525-.326.35-.489.83-.489 1.441 0 .415.073.777.22 1.087.155.301.358.537.61.708.261.163.558.245.892.245zm8.982 1.11v-1.404l.123.025a1.782 1.782 0 0 1-.77 1.099c-.407.269-.891.403-1.453.403-.57 0-1.067-.13-1.49-.39a2.663 2.663 0 0 1-.965-1.124c-.228-.48-.342-1.047-.342-1.698 0-.66.118-1.233.355-1.722a2.7 2.7 0 0 1 .989-1.136c.431-.268.932-.403 1.502-.403.586 0 1.07.143 1.453.428.383.277.619.663.708 1.16l-.158.012v-4.042h1.55v8.793H59.84zm-1.648-1.135c.496 0 .891-.17 1.184-.513.302-.35.452-.838.452-1.465 0-.627-.15-1.112-.452-1.454-.3-.342-.7-.512-1.196-.512-.489 0-.884.175-1.185.525-.301.341-.452.826-.452 1.453 0 .627.15 1.111.452 1.453.301.342.7.513 1.197.513zm8.672 1.136a4.543 4.543 0 0 1-.098-.538 8.71 8.71 0 0 1-.024-.708h-.05V21.35c0-.326-.093-.57-.28-.733-.18-.171-.456-.256-.83-.256-.367 0-.66.069-.88.207a.829.829 0 0 0-.39.574h-1.478c.065-.578.342-1.046.83-1.404.489-.358 1.144-.538 1.966-.538.855 0 1.502.196 1.942.587.44.382.66.948.66 1.697v2.821c0 .196.012.395.036.599.033.203.078.419.134.647h-1.538zm-2.162.122c-.627 0-1.127-.155-1.502-.464-.366-.318-.55-.741-.55-1.27 0-.57.208-1.022.623-1.356.415-.334 1.002-.558 1.759-.672l1.942-.293v.977l-1.686.257c-.366.057-.643.159-.83.305-.18.147-.269.35-.269.61 0 .237.086.42.257.55.17.123.407.184.708.184.44 0 .806-.11 1.1-.33.292-.22.439-.489.439-.806l.17.94c-.162.448-.43.79-.805 1.026-.367.228-.819.342-1.356.342zm5.11 2.381 1.611-3.614.281-.465 1.759-4.652h1.636l-3.725 8.731h-1.563zm1.38-2.564-2.529-6.168h1.673l2.113 5.594-1.258.574zm9.58.06v-7.534h-2.92v-1.258h7.426v1.258h-2.919v7.535h-1.587zm8.107 0a4.543 4.543 0 0 1-.097-.537 8.71 8.71 0 0 1-.025-.708h-.049V21.35c0-.326-.093-.57-.28-.733-.18-.171-.456-.256-.831-.256-.366 0-.66.069-.88.207a.829.829 0 0 0-.39.574h-1.478c.065-.578.342-1.046.83-1.404.49-.358 1.145-.538 1.967-.538.855 0 1.502.196 1.942.587.44.382.66.948.66 1.697v2.821c0 .196.011.395.036.599.032.203.077.419.134.647H88.88zm-2.161.123c-.627 0-1.128-.155-1.502-.464-.367-.318-.55-.741-.55-1.27 0-.57.208-1.022.623-1.356.415-.334 1.001-.558 1.758-.672l1.942-.293v.977l-1.685.257c-.367.057-.643.159-.83.305-.18.147-.27.35-.27.61 0 .237.086.42.257.55.171.123.407.184.709.184.44 0 .806-.11 1.099-.33.293-.22.44-.489.44-.806l.17.94c-.163.448-.431.79-.806 1.026-.366.228-.818.342-1.355.342zm7.35 0c-.863 0-1.551-.18-2.064-.537-.513-.367-.794-.872-.843-1.515h1.405c.04.318.19.558.451.72.261.164.611.245 1.05.245.4 0 .697-.061.892-.183a.617.617 0 0 0 .305-.55.54.54 0 0 0-.17-.415c-.114-.114-.33-.207-.648-.28l-1.001-.233c-.684-.146-1.193-.374-1.527-.684a1.587 1.587 0 0 1-.488-1.184c0-.578.22-1.03.66-1.356.447-.334 1.062-.5 1.843-.5.774 0 1.393.166 1.857.5.472.326.732.778.781 1.356h-1.404a.782.782 0 0 0-.391-.574c-.212-.13-.505-.196-.88-.196-.35 0-.614.057-.793.171a.518.518 0 0 0-.269.476c0 .163.07.302.208.416.138.106.37.2.696.28l1.075.245c.61.138 1.07.379 1.38.72.317.342.476.745.476 1.21 0 .594-.228 1.054-.684 1.38-.456.325-1.095.488-1.917.488zm3.653-.122v-8.88h1.539v8.879h-1.54zm4.018 0-2.834-3.236 2.748-2.992h1.857l-3.176 3.272.086-.574 3.212 3.53h-1.893zm4.911.122c-.863 0-1.551-.18-2.064-.537-.513-.367-.794-.872-.843-1.515h1.405c.04.318.191.558.452.72.26.164.61.245 1.05.245.399 0 .696-.061.891-.183a.617.617 0 0 0 .306-.55.54.54 0 0 0-.171-.415c-.114-.114-.33-.207-.648-.28l-1.001-.233c-.684-.146-1.193-.374-1.527-.684a1.59 1.59 0 0 1-.488-1.184c0-.578.22-1.03.659-1.356.448-.334 1.063-.5 1.844-.5.774 0 1.393.166 1.857.5.472.326.732.778.781 1.356h-1.404a.782.782 0 0 0-.391-.574c-.212-.13-.505-.196-.879-.196-.35 0-.615.057-.794.171a.519.519 0 0 0-.269.476c0 .163.07.302.208.416.138.106.37.2.696.28l1.075.245c.61.138 1.07.379 1.38.72.317.342.476.745.476 1.21 0 .594-.228 1.054-.684 1.38-.456.325-1.095.488-1.917.488z"/><path fill="#B8FF33" d="m26.545 14.591 1.347 2.694c.181.373.669.727 1.08.803l2.436.401c1.557.258 1.92 1.386.802 2.513l-1.901 1.9c-.315.316-.497.937-.392 1.386l.545 2.35c.43 1.854-.564 2.58-2.197 1.605l-2.284-1.356c-.41-.249-1.099-.249-1.51 0l-2.283 1.356c-1.633.965-2.627.249-2.197-1.605l.545-2.35c.105-.44-.077-1.06-.392-1.385l-1.901-1.901c-1.118-1.118-.755-2.245.802-2.513l2.436-.401c.411-.067.898-.43 1.08-.803l1.347-2.694c.717-1.461 1.901-1.461 2.637 0z"/><path stroke="#E7E9EF" stroke-width=".382" d="M15.688 82.38h236.614M15.688 158.71h236.614M15.688 120.545h236.614"/><path fill="#4D4D4D" d="M42.526 67.402a3.678 3.678 0 0 1-1.464-.289 3.6 3.6 0 0 1-1.154-.823 3.773 3.773 0 0 1-.759-1.25 4.581 4.581 0 0 1-.267-1.592c0-.577.089-1.104.267-1.581.178-.485.428-.902.748-1.25a3.377 3.377 0 0 1 1.154-.823c.449-.2.937-.3 1.464-.3.577 0 1.094.118 1.55.353.463.235.84.566 1.132.994.3.427.485.926.556 1.496h-.876c-.086-.634-.339-1.133-.759-1.496-.413-.37-.944-.556-1.592-.556-.549 0-1.03.135-1.443.406a2.624 2.624 0 0 0-.962 1.111c-.227.47-.341 1.02-.341 1.646 0 .627.114 1.179.341 1.656.228.47.549.84.962 1.112.413.263.89.395 1.432.395.663 0 1.204-.185 1.624-.556.428-.37.68-.869.76-1.496h.875a3.273 3.273 0 0 1-.555 1.496c-.293.428-.67.76-1.133.994-.456.235-.976.353-1.56.353zm6.831 0c-.534 0-1.004-.125-1.41-.374a2.609 2.609 0 0 1-.952-1.015 3.184 3.184 0 0 1-.33-1.464c0-.549.113-1.033.341-1.454.228-.42.542-.751.94-.993.407-.243.877-.364 1.411-.364.541 0 1.012.121 1.41.364.407.242.72.573.94.993.229.42.343.905.343 1.454 0 .541-.114 1.03-.342 1.464-.22.427-.534.765-.94 1.015-.4.25-.87.374-1.411.374zm0-.727c.37 0 .691-.089.962-.267.27-.185.48-.438.63-.759.15-.32.225-.69.225-1.111 0-.627-.168-1.13-.503-1.507-.327-.377-.765-.566-1.314-.566-.541 0-.98.189-1.314.566-.335.378-.503.88-.503 1.507 0 .42.075.79.225 1.111.15.32.36.574.63.759.278.178.599.267.962.267zm3.975.62v-5.45h.801v1.282h.054v4.168h-.855zm3.676 0v-3.612c0-.413-.093-.716-.278-.908-.185-.192-.452-.289-.801-.289a1.702 1.702 0 0 0-1.518.887 2.02 2.02 0 0 0-.224.973l-.14-1.293a2.19 2.19 0 0 1 .834-.962c.37-.235.773-.353 1.208-.353.527 0 .955.157 1.282.47.328.307.492.724.492 1.25v3.837h-.855zm3.676 0v-3.612c0-.413-.093-.716-.278-.908-.185-.192-.452-.289-.801-.289a1.702 1.702 0 0 0-1.518.887 2.02 2.02 0 0 0-.224.973l-.214-1.293a2.15 2.15 0 0 1 .855-.962 2.337 2.337 0 0 1 1.24-.353c.527 0 .958.157 1.292.47.335.307.503.724.503 1.25v3.837h-.855zm5.192.096c-.513 0-.944-.125-1.293-.374-.35-.25-.588-.602-.716-1.058l.17-.021v3.547h-.854v-7.64h.801v1.272l-.117-.032a1.76 1.76 0 0 1 .77-.983c.377-.243.815-.364 1.314-.364.484 0 .904.118 1.26.353.364.235.645.563.845.983.2.42.299.912.299 1.475 0 .57-.103 1.068-.31 1.496a2.363 2.363 0 0 1-.866.993c-.37.236-.805.353-1.303.353zm-.129-.748c.542 0 .966-.185 1.272-.556.306-.377.46-.89.46-1.538 0-.642-.153-1.144-.46-1.507-.306-.37-.73-.556-1.272-.556-.54 0-.968.19-1.282.567-.313.37-.47.88-.47 1.528 0 .634.157 1.136.47 1.506.314.37.741.556 1.282.556zm3.916.652V59.6h.855v7.694h-.855zm4.8.107c-.52 0-.979-.121-1.378-.364a2.637 2.637 0 0 1-.94-1.015c-.228-.427-.342-.919-.342-1.474 0-.556.11-1.044.331-1.464a2.46 2.46 0 0 1 .951-.994c.406-.235.873-.353 1.4-.353.506 0 .944.11 1.314.332.378.22.666.53.866.93.207.398.31.868.31 1.41 0 .071-.004.139-.01.203a1.2 1.2 0 0 1-.022.213h-4.499v-.715h3.975l-.278.395c0-.656-.146-1.158-.438-1.507-.285-.356-.69-.534-1.218-.534-.541 0-.98.189-1.314.566-.328.37-.492.873-.492 1.507 0 .648.164 1.168.492 1.56.335.385.78.577 1.335.577.35 0 .656-.075.92-.224.263-.157.455-.378.576-.663h.813a2.38 2.38 0 0 1-.898 1.186c-.413.285-.898.428-1.453.428zm5.916-.01c-.605 0-1.047-.136-1.325-.407-.27-.278-.406-.677-.406-1.197v-5.214l.855-.321v5.525c0 .306.078.53.235.673.157.142.413.214.77.214.142 0 .263-.008.363-.022a1.19 1.19 0 0 0 .256-.075v.727c-.07.028-.174.05-.31.064a2.68 2.68 0 0 1-.438.032zm-2.853-4.82v-.727h3.601v.727h-3.6zm6.82 4.83c-.52 0-.98-.121-1.379-.364a2.637 2.637 0 0 1-.94-1.015c-.228-.427-.342-.919-.342-1.474 0-.556.11-1.044.331-1.464a2.46 2.46 0 0 1 .951-.994 2.747 2.747 0 0 1 1.4-.353c.506 0 .944.11 1.315.332.377.22.666.53.865.93.207.398.31.868.31 1.41 0 .071-.003.139-.01.203a1.2 1.2 0 0 1-.022.213h-4.499v-.715h3.976l-.278.395c0-.656-.146-1.158-.438-1.507-.285-.356-.692-.534-1.219-.534-.541 0-.98.189-1.314.566-.328.37-.492.873-.492 1.507 0 .648.164 1.168.492 1.56.335.385.78.577 1.336.577.349 0 .655-.075.919-.224.263-.157.456-.378.577-.663h.812a2.38 2.38 0 0 1-.898 1.186c-.413.285-.897.428-1.453.428zm8.107-.107V60.37h-2.64v-.769h6.155v.77H93.33v6.924h-.876zm4.76 0V59.6h.855v7.694h-.855zm3.9 0v-3.57c0-.412-.103-.722-.31-.929-.207-.206-.513-.31-.919-.31a1.91 1.91 0 0 0-.951.235c-.27.157-.484.374-.641.652a2.02 2.02 0 0 0-.225.973l-.138-1.293a2.17 2.17 0 0 1 .844-.962 2.45 2.45 0 0 1 1.303-.353c.57 0 1.026.164 1.368.492.349.32.524.744.524 1.272v3.793h-.855zm4.73.107c-.52 0-.98-.121-1.379-.364a2.636 2.636 0 0 1-.94-1.015c-.228-.427-.342-.919-.342-1.474 0-.556.11-1.044.331-1.464a2.46 2.46 0 0 1 .951-.994c.406-.235.873-.353 1.4-.353.506 0 .944.11 1.315.332.377.22.666.53.865.93.207.398.31.868.31 1.41 0 .071-.004.139-.011.203 0 .064-.007.135-.021.213h-4.499v-.715h3.975l-.278.395c0-.656-.146-1.158-.438-1.507-.285-.356-.691-.534-1.218-.534-.541 0-.979.189-1.314.566-.328.37-.492.873-.492 1.507 0 .648.164 1.168.492 1.56.335.385.78.577 1.336.577.349 0 .655-.075.919-.224.263-.157.455-.378.577-.663h.812a2.381 2.381 0 0 1-.898 1.186c-.413.285-.898.428-1.453.428zm7.893-.107L111.46 59.6h.897l2.041 7.106h-.16l1.998-7.106h1.069l2.009 7.106h-.16l2.03-7.106h.844l-2.276 7.694h-1.069l-1.998-6.892h.128l-2.009 6.892h-1.068zm9.492 0v-5.45h.855v5.45h-.855zm-.064-6.69v-1.004h.983v1.005h-.983zm2.631 6.69v-5.45h.801v1.39h.054v4.06h-.855zm.855-2.843-.139-1.292c.128-.463.356-.816.684-1.058a1.856 1.856 0 0 1 1.133-.364c.178 0 .299.015.363.043v.823a.42.42 0 0 0-.15-.021 2.176 2.176 0 0 0-.235-.011c-.541 0-.954.164-1.239.491-.278.32-.417.784-.417 1.39zm5.198 2.95c-.52 0-.98-.121-1.379-.364a2.636 2.636 0 0 1-.94-1.015c-.228-.427-.342-.919-.342-1.474 0-.556.11-1.044.331-1.464a2.46 2.46 0 0 1 .951-.994c.406-.235.873-.353 1.4-.353.506 0 .944.11 1.314.332.378.22.667.53.866.93.207.398.31.868.31 1.41 0 .071-.004.139-.011.203 0 .064-.007.135-.021.213h-4.499v-.715h3.975l-.278.395c0-.656-.146-1.158-.438-1.507-.285-.356-.691-.534-1.218-.534-.541 0-.979.189-1.314.566-.328.37-.492.873-.492 1.507 0 .648.164 1.168.492 1.56.335.385.78.577 1.335.577.35 0 .656-.075.919-.224.264-.157.456-.378.577-.663h.813a2.387 2.387 0 0 1-.898 1.186c-.413.285-.898.428-1.453.428zm4.184-.107v-6.22c0-.498.143-.886.428-1.164.292-.278.733-.417 1.325-.417.142 0 .253.007.331.022.085.014.157.032.214.053v.673a1.827 1.827 0 0 0-.214-.042 1.691 1.691 0 0 0-.278-.022c-.328 0-.57.082-.727.246-.149.164-.224.395-.224.694v6.177h-.855zm-1.122-4.723v-.727h3.302v.727h-3.302zm4.451 4.723v-5.45h.801v1.39h.054v4.06h-.855zm.855-2.843-.139-1.292c.128-.463.356-.816.684-1.058a1.856 1.856 0 0 1 1.133-.364c.178 0 .299.015.363.043v.823a.42.42 0 0 0-.15-.021 2.176 2.176 0 0 0-.235-.011c-.541 0-.954.164-1.239.491-.278.32-.417.784-.417 1.39zm6.34 2.843a3.072 3.072 0 0 1-.064-.417 13.774 13.774 0 0 1-.011-.598h-.053v-2.608c0-.413-.096-.715-.288-.908-.186-.2-.488-.3-.909-.3-.413 0-.744.086-.994.257a.911.911 0 0 0-.406.706h-.822c.035-.527.256-.94.662-1.24.406-.3.937-.449 1.592-.449.677 0 1.179.16 1.507.481.328.32.492.802.492 1.443v2.618c0 .156.01.32.032.491.021.164.049.339.085.524h-.823zm-1.87.107c-.563 0-1.011-.136-1.346-.406-.328-.278-.492-.656-.492-1.133s.164-.848.492-1.111c.328-.264.805-.45 1.432-.556l1.902-.32v.705l-1.774.278c-.399.064-.702.17-.908.32-.207.15-.31.367-.31.652 0 .278.092.488.278.63.192.143.473.214.844.214.477 0 .865-.107 1.165-.32.306-.221.459-.506.459-.855l.139.758a1.465 1.465 0 0 1-.673.845c-.328.199-.73.299-1.208.299zm4.223-.107v-5.45h.802v1.282h.053v4.168h-.855zm3.676 0v-3.612c0-.413-.092-.716-.278-.908-.185-.192-.452-.289-.801-.289a1.703 1.703 0 0 0-1.517.887c-.15.278-.225.602-.225.973l-.139-1.293c.186-.406.463-.727.834-.962a2.21 2.21 0 0 1 1.207-.353c.527 0 .955.157 1.283.47.327.307.491.724.491 1.25v3.837h-.855zm3.676 0v-3.612c0-.413-.092-.716-.278-.908-.185-.192-.452-.289-.801-.289a1.703 1.703 0 0 0-1.517.887c-.15.278-.225.602-.225.973l-.214-1.293a2.16 2.16 0 0 1 .855-.962 2.338 2.338 0 0 1 1.24-.353c.527 0 .958.157 1.293.47.335.307.502.724.502 1.25v3.837h-.855zm2.499 0v-5.45h.855v5.45h-.855zm-.064-6.69v-1.004h.983v1.005h-.983zm2.631 6.69v-5.45h.802v1.282h.053v4.168h-.855zm3.901 0v-3.57c0-.412-.104-.722-.31-.929-.207-.206-.513-.31-.919-.31a1.91 1.91 0 0 0-.951.235 1.7 1.7 0 0 0-.641.652c-.15.278-.225.602-.225.973l-.139-1.293c.186-.406.467-.727.845-.962a2.448 2.448 0 0 1 1.303-.353c.57 0 1.026.164 1.368.492.349.32.524.744.524 1.272v3.793h-.855zm4.665 2.297c-.648 0-1.189-.153-1.624-.46a1.823 1.823 0 0 1-.78-1.196h.812c.079.285.253.51.524.673.278.171.652.257 1.122.257.556 0 .976-.153 1.261-.46.285-.299.427-.74.427-1.325v-1.165l.107.022a1.783 1.783 0 0 1-.726.994c-.364.242-.795.363-1.293.363a2.32 2.32 0 0 1-1.261-.342 2.344 2.344 0 0 1-.845-.972c-.199-.414-.299-.894-.299-1.443 0-.556.104-1.044.31-1.464.207-.42.495-.744.866-.972.377-.235.815-.353 1.314-.353.513 0 .94.125 1.282.374.349.25.581.605.695 1.069l-.096.01v-1.357h.801v5.236c0 .777-.231 1.39-.694 1.838-.463.449-1.098.673-1.903.673zm.043-3.034c.535 0 .958-.186 1.272-.556.313-.37.47-.873.47-1.507 0-.62-.157-1.108-.47-1.464-.314-.363-.737-.545-1.272-.545-.541 0-.969.182-1.282.545-.306.364-.46.862-.46 1.496 0 .62.157 1.115.471 1.486.313.363.737.545 1.271.545zm6.857.737v-6.22c0-.498.142-.886.427-1.164.292-.278.734-.417 1.325-.417.143 0 .253.007.331.022.086.014.157.032.214.053v.673a1.827 1.827 0 0 0-.214-.042 1.679 1.679 0 0 0-.277-.022c-.328 0-.57.082-.727.246-.15.164-.224.395-.224.694v6.177h-.855zm-1.122-4.723v-.727h3.302v.727h-3.302zm6.507 4.83c-.534 0-1.004-.125-1.41-.374a2.61 2.61 0 0 1-.951-1.015 3.183 3.183 0 0 1-.332-1.464c0-.549.114-1.033.342-1.454.228-.42.542-.751.941-.993.406-.243.876-.364 1.41-.364.542 0 1.012.121 1.411.364.406.242.719.573.94.993.228.42.342.905.342 1.454 0 .541-.114 1.03-.342 1.464a2.533 2.533 0 0 1-.94 1.015c-.399.25-.869.374-1.411.374zm0-.727c.371 0 .691-.089.962-.267a1.83 1.83 0 0 0 .63-.759c.15-.32.225-.69.225-1.111 0-.627-.168-1.13-.502-1.507-.328-.377-.766-.566-1.315-.566-.541 0-.979.189-1.314.566-.335.378-.502.88-.502 1.507 0 .42.074.79.224 1.111.15.32.36.574.63.759.278.178.599.267.962.267zm3.975.62v-5.45h.802v1.39h.053v4.06h-.855zm.855-2.843-.139-1.292c.128-.463.356-.816.684-1.058a1.856 1.856 0 0 1 1.133-.364c.178 0 .299.015.363.043v.823a.42.42 0 0 0-.15-.021 2.176 2.176 0 0 0-.235-.011c-.541 0-.954.164-1.239.491-.278.32-.417.784-.417 1.39zm7.792 2.843-2.971-7.694h.941l2.757 7.31h-.321l2.746-7.31h.887l-2.97 7.694H194.8zm3.875 0v-1.1h1.1v1.1h-1.1zm3.147 0v-6.818l.224.054c-.086.192-.249.385-.492.577-.242.192-.523.36-.844.502a3.624 3.624 0 0 1-.972.289v-.823a3.778 3.778 0 0 0 1.774-.812 2.07 2.07 0 0 0 .534-.663h.63v7.694h-.854z"/><circle cx="23.082" cy="63.492" r="6.869" fill="#fff" stroke="#D1D6E1" stroke-width="1.527"/><circle cx="23.078" cy="101.654" r="6.869" fill="#fff" stroke="#B8FF33" stroke-width="1.527"/><circle cx="23.08" cy="101.654" r="4.58" fill="#B8FF33"/><path fill="#262626" d="M39.263 105.654V97.96h2.842c.549 0 1.015.09 1.4.268.385.178.677.427.876.748.207.313.31.687.31 1.122 0 .434-.103.815-.31 1.143a2.04 2.04 0 0 1-.876.759c-.385.178-.851.267-1.4.267h-2.201v-.769h2.17c.569 0 1-.125 1.292-.374.3-.25.449-.592.449-1.026 0-.428-.146-.763-.438-1.005-.292-.242-.727-.363-1.304-.363H40.14v6.924h-.876zm4.51 0-4.094-3.815h1.197l4.221 3.815h-1.325zm4.348.107c-.52 0-.98-.121-1.379-.363a2.636 2.636 0 0 1-.94-1.015c-.228-.428-.342-.919-.342-1.475s.11-1.044.331-1.464c.229-.427.546-.759.952-.994.406-.235.872-.352 1.4-.352.505 0 .943.11 1.314.331.377.221.666.531.865.93.207.399.31.869.31 1.41 0 .071-.003.139-.01.203a1.2 1.2 0 0 1-.022.214h-4.499v-.716h3.976l-.278.395c0-.655-.146-1.157-.438-1.506-.285-.357-.691-.535-1.219-.535-.541 0-.98.189-1.314.567-.328.37-.492.872-.492 1.506 0 .649.164 1.169.492 1.56.335.385.78.578 1.336.578.349 0 .655-.075.919-.225a1.38 1.38 0 0 0 .577-.662h.812a2.382 2.382 0 0 1-.898 1.186c-.413.285-.897.427-1.453.427zm5.265-.107-2.254-5.449h.919l1.88 4.872h-.342l1.87-4.872h.877l-2.255 5.449h-.695zm3.928 0v-5.449h.855v5.449h-.855zm-.064-6.689V97.96h.983v1.005h-.983zm4.844 6.796c-.52 0-.98-.121-1.379-.363a2.636 2.636 0 0 1-.94-1.015c-.228-.428-.342-.919-.342-1.475s.11-1.044.331-1.464c.228-.427.545-.759.951-.994.406-.235.873-.352 1.4-.352.506 0 .944.11 1.315.331.377.221.666.531.865.93.207.399.31.869.31 1.41 0 .071-.004.139-.01.203a1.2 1.2 0 0 1-.022.214h-4.499v-.716h3.975l-.277.395c0-.655-.146-1.157-.438-1.506-.286-.357-.692-.535-1.219-.535-.541 0-.98.189-1.314.567-.328.37-.492.872-.492 1.506 0 .649.164 1.169.492 1.56.335.385.78.578 1.336.578.349 0 .655-.075.919-.225a1.38 1.38 0 0 0 .577-.662h.812a2.382 2.382 0 0 1-.898 1.186c-.413.285-.897.427-1.453.427zm4.816-.107-1.667-5.449h.865l1.282 4.669h-.213l1.538-4.669h.695l1.55 4.669h-.214l1.272-4.669h.822l-1.667 5.449h-.694l-1.54-4.563h.225l-1.56 4.563h-.694zm11.4.096c-.606 0-1.048-.135-1.326-.406-.27-.277-.406-.676-.406-1.196v-5.215l.855-.32v5.524c0 .306.078.531.235.673.157.143.413.214.77.214.142 0 .263-.007.363-.022.107-.021.192-.046.256-.074v.726a1.18 1.18 0 0 1-.31.064 2.617 2.617 0 0 1-.438.032zm-2.854-4.819v-.726h3.601v.726h-3.6zm4.701 4.723V97.96h.855v7.694h-.855zm3.9 0v-3.569c0-.413-.103-.723-.31-.929-.206-.207-.512-.31-.918-.31a1.9 1.9 0 0 0-.951.235 1.71 1.71 0 0 0-.641.652c-.15.277-.225.602-.225.972l-.139-1.293a2.17 2.17 0 0 1 .844-.962 2.45 2.45 0 0 1 1.304-.352c.57 0 1.026.164 1.368.491.349.321.523.745.523 1.272v3.793h-.854zm4.73.107c-.52 0-.979-.121-1.378-.363a2.637 2.637 0 0 1-.94-1.015c-.228-.428-.342-.919-.342-1.475s.11-1.044.331-1.464c.228-.427.545-.759.951-.994.406-.235.873-.352 1.4-.352.506 0 .944.11 1.314.331.378.221.666.531.866.93.206.399.31.869.31 1.41 0 .071-.004.139-.011.203 0 .064-.007.136-.021.214h-4.5v-.716h3.976l-.278.395c0-.655-.146-1.157-.438-1.506-.285-.357-.69-.535-1.218-.535-.541 0-.98.189-1.314.567-.328.37-.492.872-.492 1.506 0 .649.164 1.169.492 1.56.334.385.78.578 1.335.578.35 0 .656-.075.92-.225.263-.157.455-.377.576-.662h.812a2.382 2.382 0 0 1-.897 1.186c-.413.285-.898.427-1.453.427zm7.05-.107-1.668-5.449h.866l1.282 4.669h-.213l1.538-4.669h.695l1.55 4.669h-.214l1.271-4.669h.823l-1.667 5.449h-.694l-1.54-4.563h.225l-1.56 4.563h-.695zm9.241.107c-.534 0-1.005-.125-1.411-.374a2.61 2.61 0 0 1-.951-1.015 3.185 3.185 0 0 1-.331-1.464c0-.548.114-1.033.342-1.453a2.57 2.57 0 0 1 .94-.994c.406-.242.877-.363 1.411-.363.541 0 1.011.121 1.41.363.406.242.72.573.941.994.228.42.342.905.342 1.453 0 .541-.114 1.029-.342 1.464a2.536 2.536 0 0 1-.941 1.015c-.399.249-.869.374-1.41.374zm0-.726c.37 0 .691-.09.962-.268.27-.185.48-.438.63-.758.15-.321.224-.691.224-1.112 0-.627-.167-1.129-.502-1.506-.327-.378-.766-.567-1.314-.567-.542 0-.98.189-1.314.567-.335.377-.503.879-.503 1.506 0 .421.075.791.225 1.112.149.32.359.573.63.758.278.178.599.268.962.268zm3.975.619v-5.449h.801v1.389h.054v4.06h-.855zm.855-2.842-.139-1.293c.128-.463.356-.816.684-1.058a1.854 1.854 0 0 1 1.132-.363c.178 0 .3.014.364.042v.823a.427.427 0 0 0-.15-.021 2.193 2.193 0 0 0-.235-.011c-.541 0-.955.164-1.24.492-.277.32-.416.783-.416 1.389zm3.152 2.842v-7.907h.855v7.907h-.855zm3.558 0-2.895-2.831 2.789-2.618h1.175l-3.131 2.863.053-.502 3.185 3.088h-1.176zm4.749 0v-6.219c0-.499.142-.887.427-1.165.292-.277.734-.416 1.325-.416.143 0 .253.007.331.021.086.014.157.032.214.053v.674a1.845 1.845 0 0 0-.214-.043 1.69 1.69 0 0 0-.277-.021c-.328 0-.57.082-.727.245-.15.164-.224.396-.224.695v6.176h-.855zm-1.122-4.723v-.726h3.302v.726h-3.302zm4.45 4.723v-5.449h.802v1.389h.053v4.06h-.855zm.855-2.842-.139-1.293c.129-.463.357-.816.684-1.058a1.859 1.859 0 0 1 1.133-.363c.178 0 .299.014.363.042v.823a.417.417 0 0 0-.149-.021 2.207 2.207 0 0 0-.235-.011c-.542 0-.955.164-1.24.492-.278.32-.417.783-.417 1.389zm5.418 2.949c-.534 0-1.004-.125-1.411-.374a2.61 2.61 0 0 1-.951-1.015 3.198 3.198 0 0 1-.331-1.464c0-.548.114-1.033.342-1.453.228-.421.542-.752.94-.994.407-.242.877-.363 1.411-.363.541 0 1.012.121 1.411.363.406.242.719.573.94.994.228.42.342.905.342 1.453 0 .541-.114 1.029-.342 1.464a2.533 2.533 0 0 1-.94 1.015c-.399.249-.87.374-1.411.374zm0-.726c.37 0 .691-.09.962-.268.27-.185.481-.438.63-.758.15-.321.225-.691.225-1.112 0-.627-.168-1.129-.503-1.506-.327-.378-.765-.567-1.314-.567-.541 0-.98.189-1.314.567-.335.377-.503.879-.503 1.506 0 .421.075.791.225 1.112.149.32.36.573.63.758.278.178.599.268.962.268zm3.975.619v-5.449h.801v1.282h.054v4.167h-.855zm3.676 0v-3.612c0-.413-.093-.715-.278-.908-.185-.192-.452-.288-.801-.288a1.698 1.698 0 0 0-1.518.887 2.025 2.025 0 0 0-.224.972l-.139-1.293a2.19 2.19 0 0 1 .833-.962 2.213 2.213 0 0 1 1.208-.352c.527 0 .954.156 1.282.47.328.306.492.723.492 1.25v3.836h-.855zm3.676 0v-3.612c0-.413-.093-.715-.278-.908-.185-.192-.452-.288-.801-.288a1.698 1.698 0 0 0-1.518.887 2.025 2.025 0 0 0-.224.972l-.214-1.293c.185-.406.47-.727.855-.962a2.336 2.336 0 0 1 1.239-.352c.528 0 .959.156 1.293.47.335.306.503.723.503 1.25v3.836h-.855zm6.818.096c-.605 0-1.047-.135-1.325-.406-.271-.277-.406-.676-.406-1.196v-5.215l.855-.32v5.524c0 .306.078.531.235.673.157.143.413.214.769.214.143 0 .264-.007.364-.022.106-.021.192-.046.256-.074v.726a1.18 1.18 0 0 1-.31.064 2.613 2.613 0 0 1-.438.032zm-2.853-4.819v-.726h3.601v.726h-3.601zm4.701 4.723V97.96h.855v7.694h-.855zm3.901 0v-3.569c0-.413-.104-.723-.31-.929-.207-.207-.513-.31-.919-.31-.357 0-.674.078-.951.235a1.711 1.711 0 0 0-.642.652 2.025 2.025 0 0 0-.224.972l-.139-1.293c.185-.406.467-.727.844-.962.385-.235.82-.352 1.304-.352.57 0 1.026.164 1.368.491.349.321.523.745.523 1.272v3.793h-.854zm4.729.107c-.52 0-.979-.121-1.378-.363a2.635 2.635 0 0 1-.94-1.015c-.228-.428-.342-.919-.342-1.475s.11-1.044.331-1.464c.228-.427.545-.759.951-.994.406-.235.873-.352 1.4-.352.506 0 .944.11 1.314.331.378.221.666.531.866.93.206.399.31.869.31 1.41 0 .071-.004.139-.011.203 0 .064-.007.136-.021.214h-4.499v-.716h3.975l-.278.395c0-.655-.146-1.157-.438-1.506-.285-.357-.691-.535-1.218-.535-.542 0-.98.189-1.315.567-.327.37-.491.872-.491 1.506 0 .649.164 1.169.491 1.56.335.385.78.578 1.336.578.349 0 .656-.075.919-.225.264-.157.456-.377.577-.662h.812a2.382 2.382 0 0 1-.897 1.186c-.414.285-.898.427-1.454.427zm8.096 0a2.49 2.49 0 0 1-1.335-.363 2.693 2.693 0 0 1-.919-1.015 3.208 3.208 0 0 1-.331-1.475c0-.548.11-1.033.331-1.453.228-.421.534-.752.919-.994a2.47 2.47 0 0 1 1.325-.363c.406 0 .769.078 1.09.235.327.156.595.381.801.673.214.285.349.62.406 1.004h-.791a1.481 1.481 0 0 0-.491-.854c-.257-.221-.588-.332-.994-.332-.349 0-.652.086-.908.257a1.688 1.688 0 0 0-.599.726 2.65 2.65 0 0 0-.213 1.101c0 .42.071.791.213 1.111.143.321.342.57.599.748.263.178.57.268.919.268.392 0 .719-.107.983-.321a1.46 1.46 0 0 0 .502-.855h.791a2.27 2.27 0 0 1-.428 1.005 2.18 2.18 0 0 1-.801.662 2.399 2.399 0 0 1-1.069.235zm3.54-.107V97.96h.855v7.694h-.855zm2.567 0v-5.449h.855v5.449h-.855zm-.064-6.689V97.96h.983v1.005h-.983zm4.843 6.796c-.52 0-.979-.121-1.378-.363a2.637 2.637 0 0 1-.941-1.015c-.227-.428-.341-.919-.341-1.475s.11-1.044.331-1.464c.228-.427.545-.759.951-.994.406-.235.873-.352 1.4-.352.505 0 .944.11 1.314.331.378.221.666.531.866.93.206.399.309.869.309 1.41 0 .071-.003.139-.01.203 0 .064-.007.136-.022.214h-4.498v-.716h3.975l-.278.395c0-.655-.146-1.157-.438-1.506-.285-.357-.691-.535-1.218-.535-.542 0-.98.189-1.315.567-.327.37-.491.872-.491 1.506 0 .649.164 1.169.491 1.56.335.385.78.578 1.336.578.349 0 .655-.075.919-.225.264-.157.456-.377.577-.662h.812a2.382 2.382 0 0 1-.897 1.186c-.414.285-.898.427-1.454.427zm3.799-.107v-5.449h.801v1.282h.053v4.167h-.854zm3.9 0v-3.569c0-.413-.103-.723-.31-.929-.207-.207-.513-.31-.919-.31a1.9 1.9 0 0 0-.951.235 1.709 1.709 0 0 0-.641.652c-.15.277-.225.602-.225.972l-.138-1.293c.185-.406.466-.727.844-.962a2.447 2.447 0 0 1 1.303-.352c.57 0 1.026.164 1.368.491.349.321.524.745.524 1.272v3.793h-.855zm4.53.096c-.605 0-1.047-.135-1.325-.406-.27-.277-.406-.676-.406-1.196v-5.215l.855-.32v5.524c0 .306.078.531.235.673.157.143.413.214.77.214.142 0 .263-.007.363-.022.107-.021.192-.046.256-.074v.726a1.18 1.18 0 0 1-.31.064 2.613 2.613 0 0 1-.438.032zm-2.853-4.819v-.726h3.601v.726h-3.601z"/><path fill="#262626" d="M38.344 102.438h153.452v.406H38.344v-.406z"/><circle cx="23.078" cy="177.983" r="6.869" fill="#fff" stroke="#B8FF33" stroke-width="1.527"/><circle cx="23.076" cy="177.983" r="4.58" fill="#B8FF33"/><path fill="#262626" d="m38.728 181.983 2.971-7.693h.77l-2.896 7.693h-.845zm6.113 0-2.896-7.693h.823l2.97 7.693h-.897zm-4.638-3.109h4.018v.769h-4.018v-.769zm8.449 3.206c-.606 0-1.047-.136-1.325-.406-.27-.278-.406-.677-.406-1.197v-5.215l.855-.321v5.525c0 .306.078.531.235.673.156.143.413.214.77.214.142 0 .263-.007.363-.021.106-.022.192-.047.256-.075v.726c-.071.029-.175.05-.31.065a2.729 2.729 0 0 1-.438.032zm-2.853-4.82v-.726H49.4v.726h-3.601zm7.069 4.82c-.606 0-1.047-.136-1.325-.406-.27-.278-.406-.677-.406-1.197v-5.215l.855-.321v5.525c0 .306.078.531.235.673.156.143.413.214.77.214.142 0 .263-.007.362-.021.107-.022.193-.047.257-.075v.726c-.071.029-.175.05-.31.065a2.73 2.73 0 0 1-.438.032zm-2.853-4.82v-.726h3.6v.726h-3.6zm6.82 4.83c-.52 0-.98-.121-1.379-.363a2.636 2.636 0 0 1-.94-1.015c-.228-.428-.342-.919-.342-1.475s.11-1.043.331-1.464c.228-.427.545-.758.951-.994.406-.235.873-.352 1.4-.352.506 0 .944.11 1.314.331.378.221.666.531.866.93.206.399.31.869.31 1.41 0 .071-.004.139-.011.203a1.2 1.2 0 0 1-.021.214h-4.5v-.716h3.976l-.278.395c0-.655-.146-1.157-.438-1.506-.285-.356-.69-.535-1.218-.535-.541 0-.98.189-1.315.567-.327.37-.491.872-.491 1.506 0 .649.164 1.169.492 1.561.334.384.78.577 1.335.577.35 0 .656-.075.92-.225.263-.157.455-.377.576-.662h.812a2.382 2.382 0 0 1-.897 1.186c-.413.285-.898.427-1.453.427zm3.798-.107v-5.449h.801v1.282h.054v4.167h-.855zm3.9 0v-3.569c0-.413-.103-.723-.31-.929-.206-.207-.513-.31-.919-.31a1.9 1.9 0 0 0-.95.235 1.711 1.711 0 0 0-.642.652 2.02 2.02 0 0 0-.224.972l-.14-1.293a2.18 2.18 0 0 1 .845-.962 2.45 2.45 0 0 1 1.304-.352c.57 0 1.025.164 1.367.491.35.321.524.745.524 1.272v3.793h-.855zm6.461 0v-1.271l.107.032a1.839 1.839 0 0 1-.748.983c-.356.242-.784.363-1.282.363-.492 0-.923-.117-1.293-.352a2.405 2.405 0 0 1-.855-.983c-.2-.421-.3-.912-.3-1.475 0-.57.104-1.069.31-1.496a2.36 2.36 0 0 1 .866-.994c.37-.235.805-.353 1.304-.353.513 0 .944.125 1.293.374.349.25.587.602.716 1.058l-.171.022v-3.601h.855v7.693h-.802zm-1.763-.641c.549 0 .976-.185 1.282-.555.314-.378.47-.891.47-1.539 0-.634-.156-1.136-.47-1.507-.313-.37-.74-.556-1.282-.556-.541 0-.965.186-1.272.556-.306.371-.46.883-.46 1.539 0 .641.154 1.147.46 1.517.307.364.73.545 1.272.545zm8.598.738c-.605 0-1.047-.136-1.325-.406-.27-.278-.406-.677-.406-1.197v-5.215l.855-.321v5.525c0 .306.078.531.235.673.157.143.413.214.77.214.142 0 .263-.007.363-.021.107-.022.192-.047.256-.075v.726c-.071.029-.174.05-.31.065a2.728 2.728 0 0 1-.438.032zm-2.853-4.82v-.726h3.601v.726h-3.6zm4.701 4.723v-7.693h.855v7.693h-.855zm3.9 0v-3.569c0-.413-.103-.723-.31-.929-.206-.207-.512-.31-.918-.31a1.9 1.9 0 0 0-.951.235 1.702 1.702 0 0 0-.641.652 2.02 2.02 0 0 0-.225.972l-.139-1.293c.186-.406.467-.726.844-.962a2.45 2.45 0 0 1 1.304-.352c.57 0 1.026.164 1.368.491.349.321.523.745.523 1.272v3.793h-.854zm4.73.107c-.52 0-.979-.121-1.378-.363a2.636 2.636 0 0 1-.94-1.015c-.228-.428-.342-.919-.342-1.475s.11-1.043.331-1.464c.228-.427.545-.758.951-.994.406-.235.873-.352 1.4-.352.506 0 .944.11 1.314.331.378.221.666.531.866.93.206.399.31.869.31 1.41 0 .071-.004.139-.011.203a1.2 1.2 0 0 1-.021.214h-4.5v-.716h3.976l-.278.395c0-.655-.146-1.157-.438-1.506-.285-.356-.69-.535-1.218-.535-.541 0-.98.189-1.314.567-.328.37-.492.872-.492 1.506 0 .649.164 1.169.492 1.561.334.384.78.577 1.335.577.35 0 .656-.075.92-.225.263-.157.455-.377.576-.662h.812a2.382 2.382 0 0 1-.897 1.186c-.413.285-.898.427-1.453.427zm6.002-.107v-7.693h.876v7.693h-.876zm.78-3.996 3.997-3.697h1.229l-4.082 3.697h-1.144zm4.168 3.996-4.19-3.996h1.166l4.295 3.996h-1.271zm2.251 0v-5.449h.855v5.449h-.855zm-.064-6.689v-1.004h.983v1.004h-.983zm4.769 6.796a2.49 2.49 0 0 1-1.336-.363 2.693 2.693 0 0 1-.919-1.015 3.208 3.208 0 0 1-.331-1.475c0-.548.11-1.033.331-1.453.228-.42.534-.752.919-.994a2.472 2.472 0 0 1 1.325-.363c.406 0 .77.078 1.09.235.328.157.595.381.802.673.213.285.349.62.406 1.005h-.791a1.48 1.48 0 0 0-.492-.855c-.256-.221-.587-.332-.993-.332a1.6 1.6 0 0 0-.909.257 1.683 1.683 0 0 0-.598.727c-.143.313-.214.68-.214 1.1 0 .42.071.791.214 1.111.142.321.342.57.598.748.264.179.57.268.919.268.392 0 .72-.107.983-.321.264-.221.431-.506.503-.855h.79a2.264 2.264 0 0 1-.427 1.005 2.192 2.192 0 0 1-.802.662c-.32.157-.676.235-1.068.235zm3.539-.107v-7.907h.855v7.907h-.855zm3.558 0-2.895-2.831 2.789-2.618h1.175l-3.131 2.863.053-.502 3.185 3.088h-1.176zm4.102.107c-.534 0-1.004-.124-1.41-.374a2.603 2.603 0 0 1-.951-1.015 3.18 3.18 0 0 1-.331-1.464c0-.548.114-1.033.342-1.453.228-.42.541-.752.94-.994.406-.242.876-.363 1.41-.363.542 0 1.012.121 1.411.363.406.242.72.574.94.994.228.42.342.905.342 1.453a3.1 3.1 0 0 1-.342 1.464 2.52 2.52 0 0 1-.94 1.015c-.399.25-.869.374-1.411.374zm0-.726c.371 0 .691-.089.962-.268a1.84 1.84 0 0 0 .631-.758c.149-.321.224-.691.224-1.112 0-.626-.167-1.129-.502-1.506-.328-.378-.766-.567-1.315-.567-.541 0-.979.189-1.314.567-.335.377-.502.88-.502 1.506 0 .421.075.791.224 1.112.15.32.36.573.631.758.278.179.598.268.961.268zm4.372.619v-6.219c0-.498.143-.887.427-1.164.293-.278.734-.417 1.326-.417.142 0 .252.007.331.021.085.014.157.032.213.054v.673a1.812 1.812 0 0 0-.213-.043 1.726 1.726 0 0 0-.278-.021c-.328 0-.57.082-.727.245-.149.164-.224.396-.224.695v6.176h-.855zm-1.122-4.723v-.726h3.302v.726h-3.302zm5.035 4.723v-6.219c0-.498.143-.887.428-1.164.292-.278.733-.417 1.325-.417.142 0 .253.007.331.021.086.014.157.032.214.054v.673a1.837 1.837 0 0 0-.214-.043 1.717 1.717 0 0 0-.278-.021c-.327 0-.57.082-.726.245-.15.164-.225.396-.225.695v6.176h-.855zm-1.122-4.723v-.726h3.302v.726h-3.302zm9.914 4.83a3.677 3.677 0 0 1-1.464-.288 3.596 3.596 0 0 1-1.154-.823 3.767 3.767 0 0 1-.759-1.25 4.585 4.585 0 0 1-.267-1.592c0-.578.089-1.105.267-1.582.178-.484.427-.901.748-1.25a3.39 3.39 0 0 1 1.154-.823 3.572 3.572 0 0 1 1.464-.299c.577 0 1.093.117 1.549.352.463.235.841.567 1.133.994.299.428.485.926.556 1.496h-.876c-.086-.634-.339-1.133-.759-1.496-.413-.37-.944-.555-1.592-.555-.549 0-1.03.135-1.443.406a2.623 2.623 0 0 0-.962 1.111c-.228.47-.342 1.019-.342 1.646 0 .626.114 1.179.342 1.656.228.47.549.84.962 1.111.413.264.891.396 1.432.396.662 0 1.204-.186 1.624-.556.428-.371.681-.869.759-1.496h.876a3.262 3.262 0 0 1-.556 1.496 2.99 2.99 0 0 1-1.132.994c-.456.235-.976.352-1.56.352zm7.795-.107a3.075 3.075 0 0 1-.064-.416c-.007-.157-.01-.357-.01-.599h-.054v-2.607c0-.413-.096-.716-.288-.908-.186-.2-.488-.3-.909-.3-.413 0-.744.086-.993.257a.91.91 0 0 0-.407.705h-.822c.035-.527.256-.94.662-1.239.406-.3.937-.449 1.592-.449.677 0 1.179.16 1.507.481.328.32.492.801.492 1.442v2.618c0 .157.01.321.032.492.021.164.05.338.085.523h-.823zm-1.87.107c-.562 0-1.011-.135-1.346-.406-.328-.278-.492-.655-.492-1.132 0-.478.164-.848.492-1.112.328-.263.805-.449 1.432-.555l1.902-.321v.705l-1.774.278c-.399.064-.702.171-.908.321-.207.149-.31.366-.31.651 0 .278.092.488.278.631.192.142.473.214.844.214.477 0 .865-.107 1.165-.321.306-.221.459-.506.459-.855l.139.759a1.464 1.464 0 0 1-.673.844c-.328.2-.73.299-1.208.299zm4.223-.107v-7.693h.855v7.693h-.855zm2.567 0v-7.693h.855v7.693h-.855z"/><path fill="#262626" d="M38.344 178.767h110.57v.406H38.344v-.406z"/><circle cx="23.078" cy="139.815" r="6.869" fill="#fff" stroke="#D1D6E1" stroke-width="1.527"/><path fill="#4D4D4D" d="m38.728 143.815 2.971-7.693h.77l-2.896 7.693h-.845zm6.113 0-2.896-7.693h.823l2.97 7.693h-.897zm-4.638-3.109h4.018v.769h-4.018v-.769zm8.41 3.216c-.67 0-1.204-.153-1.603-.459-.399-.314-.627-.755-.684-1.325h.823c.05.349.203.616.46.801.256.185.598.278 1.025.278.378 0 .673-.071.887-.214a.688.688 0 0 0 .32-.609.7.7 0 0 0-.18-.481c-.122-.142-.364-.26-.727-.352l-.877-.225c-.498-.128-.873-.324-1.122-.587a1.374 1.374 0 0 1-.374-.962c0-.47.175-.841.524-1.111.349-.278.823-.417 1.421-.417.591 0 1.072.142 1.443.427.37.285.58.681.63 1.186h-.823a.993.993 0 0 0-.406-.673c-.22-.157-.513-.235-.876-.235-.35 0-.62.068-.812.203a.628.628 0 0 0-.289.556.66.66 0 0 0 .203.481c.143.135.378.249.706.342l.855.235c.505.135.886.342 1.143.619.256.278.385.613.385 1.005 0 .477-.182.851-.545 1.122-.364.263-.866.395-1.507.395zm5.155 0c-.67 0-1.204-.153-1.603-.459-.399-.314-.627-.755-.684-1.325h.823c.05.349.203.616.46.801.256.185.598.278 1.025.278.378 0 .673-.071.887-.214a.688.688 0 0 0 .32-.609.7.7 0 0 0-.18-.481c-.122-.142-.364-.26-.727-.352l-.877-.225c-.498-.128-.872-.324-1.122-.587a1.374 1.374 0 0 1-.374-.962c0-.47.175-.841.524-1.111.349-.278.823-.417 1.421-.417.591 0 1.072.142 1.443.427.37.285.58.681.63 1.186h-.823a.993.993 0 0 0-.406-.673c-.22-.157-.513-.235-.876-.235-.349 0-.62.068-.812.203a.628.628 0 0 0-.289.556.66.66 0 0 0 .203.481c.143.135.378.249.706.342l.855.235c.505.135.886.342 1.143.619.256.278.385.613.385 1.005 0 .477-.182.851-.545 1.122-.364.263-.866.395-1.507.395zm3.285-.107v-5.449h.855v5.449h-.855zm-.064-6.689v-1.004h.983v1.004h-.983zm4.78 8.987c-.648 0-1.19-.153-1.624-.46a1.82 1.82 0 0 1-.78-1.196h.812c.078.285.253.509.523.673.278.171.652.256 1.122.256.556 0 .976-.153 1.261-.459.285-.299.428-.741.428-1.325v-1.165l.107.021a1.78 1.78 0 0 1-.727.994c-.363.242-.794.363-1.293.363-.477 0-.898-.114-1.261-.342a2.342 2.342 0 0 1-.844-.972c-.2-.413-.3-.894-.3-1.443 0-.555.104-1.043.31-1.463.207-.421.496-.745.866-.973.378-.235.816-.352 1.315-.352.512 0 .94.124 1.282.374.349.249.58.605.694 1.068l-.096.011v-1.357h.802v5.236c0 .776-.232 1.389-.695 1.838-.463.448-1.097.673-1.902.673zm.043-3.035c.534 0 .958-.185 1.271-.556.314-.37.47-.872.47-1.506 0-.62-.156-1.108-.47-1.464-.313-.364-.737-.545-1.271-.545-.542 0-.97.181-1.283.545-.306.363-.46.862-.46 1.496 0 .62.158 1.115.471 1.485.313.363.737.545 1.272.545zm4.268.737v-5.449h.802v1.282h.053v4.167h-.855zm3.9 0v-3.569c0-.413-.103-.723-.31-.929-.206-.207-.512-.31-.919-.31-.356 0-.673.078-.95.235a1.71 1.71 0 0 0-.642.652 2.02 2.02 0 0 0-.224.972l-.139-1.293c.185-.406.467-.726.844-.962a2.45 2.45 0 0 1 1.304-.352c.57 0 1.026.164 1.368.491.349.321.523.745.523 1.272v3.793h-.855zm6.816.097c-.605 0-1.047-.136-1.325-.406-.27-.278-.406-.677-.406-1.197v-5.215l.855-.321v5.525c0 .306.078.531.235.673.157.143.413.214.77.214.142 0 .263-.007.363-.021.106-.022.192-.047.256-.075v.726c-.071.029-.174.05-.31.065a2.728 2.728 0 0 1-.438.032zm-2.853-4.82v-.726h3.601v.726h-3.601zm4.701 4.723v-7.693h.855v7.693h-.855zm3.9 0v-3.569c0-.413-.103-.723-.31-.929-.206-.207-.512-.31-.918-.31a1.9 1.9 0 0 0-.951.235 1.702 1.702 0 0 0-.641.652 2.02 2.02 0 0 0-.225.972l-.139-1.293c.185-.406.467-.726.844-.962a2.45 2.45 0 0 1 1.304-.352c.57 0 1.026.164 1.368.491.349.321.523.745.523 1.272v3.793h-.854zm4.73.107c-.52 0-.98-.121-1.378-.363a2.636 2.636 0 0 1-.94-1.015c-.228-.428-.342-.919-.342-1.475 0-.555.11-1.043.33-1.464.229-.427.546-.758.952-.994.406-.235.873-.352 1.4-.352.506 0 .944.11 1.314.331.378.221.666.531.866.93.206.399.31.869.31 1.41 0 .072-.004.139-.011.203a1.2 1.2 0 0 1-.022.214h-4.498v-.716h3.975l-.278.395c0-.655-.146-1.157-.438-1.506-.285-.356-.691-.535-1.218-.535-.542 0-.98.189-1.315.567-.327.37-.491.872-.491 1.506 0 .649.164 1.169.492 1.561.334.384.78.577 1.335.577.35 0 .656-.075.92-.225.263-.156.455-.377.576-.662h.812a2.382 2.382 0 0 1-.897 1.186c-.413.285-.898.427-1.454.427zm8.118-.01c-.606 0-1.047-.136-1.325-.406-.27-.278-.406-.677-.406-1.197v-5.215l.855-.321v5.525c0 .306.078.531.235.673.156.143.413.214.77.214.142 0 .263-.007.362-.021.107-.022.193-.047.257-.075v.726c-.071.029-.175.05-.31.065a2.728 2.728 0 0 1-.438.032zm-2.853-4.82v-.726h3.6v.726h-3.6zm8.046 4.723a2.925 2.925 0 0 1-.064-.416 12.376 12.376 0 0 1-.011-.599h-.054v-2.607c0-.413-.096-.716-.288-.908-.185-.2-.488-.3-.908-.3-.413 0-.745.086-.994.257a.91.91 0 0 0-.406.705h-.823c.036-.527.256-.94.662-1.239.407-.3.937-.449 1.593-.449.677 0 1.179.16 1.506.481.328.32.492.801.492 1.442v2.618c0 .157.011.321.032.492.021.164.05.338.085.523h-.822zm-1.87.107c-.563 0-1.012-.135-1.347-.406-.327-.278-.491-.655-.491-1.132 0-.478.164-.848.491-1.112.328-.263.805-.449 1.432-.555l1.902-.321v.705l-1.774.278c-.399.064-.701.171-.908.321-.206.149-.31.367-.31.651 0 .278.093.488.278.631.192.142.474.214.844.214.478 0 .866-.107 1.165-.321.306-.221.459-.506.459-.855l.139.759a1.464 1.464 0 0 1-.673.844c-.328.2-.73.299-1.207.299zm6.05 0c-.669 0-1.203-.153-1.602-.459-.399-.314-.627-.755-.684-1.325h.823c.049.349.203.616.459.801.256.185.598.278 1.026.278.377 0 .673-.071.887-.214a.687.687 0 0 0 .32-.609.7.7 0 0 0-.181-.481c-.121-.142-.364-.26-.727-.352l-.876-.225c-.499-.128-.873-.324-1.122-.587a1.371 1.371 0 0 1-.374-.962c0-.47.174-.841.523-1.111.349-.278.823-.417 1.422-.417.591 0 1.072.142 1.442.427.371.285.581.681.631 1.186h-.823a.993.993 0 0 0-.406-.673c-.221-.157-.513-.235-.876-.235-.349 0-.62.068-.813.203a.628.628 0 0 0-.288.556.66.66 0 0 0 .203.481c.142.135.378.249.705.342l.855.235c.506.135.887.342 1.143.619.257.278.385.613.385 1.005 0 .477-.181.851-.545 1.122-.363.263-.865.395-1.507.395zm3.203-.107v-7.907h.854v7.907h-.854zm3.558 0-2.896-2.831 2.789-2.618h1.176l-3.131 2.863.053-.502 3.184 3.088h-1.175zm3.842.107c-.67 0-1.204-.153-1.603-.459-.399-.314-.627-.755-.684-1.325h.823c.05.349.203.616.459.801.257.185.599.278 1.026.278.378 0 .673-.071.887-.214a.688.688 0 0 0 .321-.609.7.7 0 0 0-.182-.481c-.121-.142-.363-.26-.727-.352l-.876-.225c-.499-.128-.873-.324-1.122-.587a1.376 1.376 0 0 1-.374-.962c0-.47.175-.841.524-1.111.349-.278.823-.417 1.421-.417.591 0 1.072.142 1.443.427.37.285.58.681.63 1.186h-.823a.993.993 0 0 0-.406-.673c-.221-.157-.513-.235-.876-.235-.349 0-.62.068-.812.203a.627.627 0 0 0-.289.556.66.66 0 0 0 .203.481c.143.135.378.249.706.342l.854.235c.506.135.887.342 1.144.619.256.278.384.613.384 1.005 0 .477-.181.851-.544 1.122-.364.263-.866.395-1.507.395zm7.521-.01c-.605 0-1.047-.136-1.325-.406-.271-.278-.406-.677-.406-1.197v-5.215l.855-.321v5.525c0 .306.078.531.235.673.157.143.413.214.769.214.143 0 .264-.007.364-.021.106-.022.192-.047.256-.075v.726c-.071.029-.174.05-.31.065a2.723 2.723 0 0 1-.438.032zm-2.853-4.82v-.726h3.601v.726h-3.601zm6.841 4.83c-.534 0-1.004-.124-1.41-.374a2.603 2.603 0 0 1-.951-1.015 3.18 3.18 0 0 1-.331-1.464c0-.548.114-1.033.341-1.453a2.58 2.58 0 0 1 .941-.994c.406-.242.876-.363 1.41-.363.542 0 1.012.121 1.411.363.406.242.719.574.94.994.228.42.342.905.342 1.453a3.1 3.1 0 0 1-.342 1.464 2.527 2.527 0 0 1-.94 1.015c-.399.25-.869.374-1.411.374zm0-.726c.371 0 .691-.089.962-.267a1.85 1.85 0 0 0 .631-.759c.149-.321.224-.691.224-1.112 0-.626-.167-1.129-.502-1.506-.328-.378-.766-.567-1.315-.567-.541 0-.979.189-1.314.567-.335.377-.502.88-.502 1.506 0 .421.075.791.224 1.112.15.32.36.573.631.759.277.178.598.267.961.267zm8.294.716c-.605 0-1.047-.136-1.325-.406-.27-.278-.406-.677-.406-1.197v-5.215l.855-.321v5.525c0 .306.079.531.235.673.157.143.413.214.77.214.142 0 .263-.007.363-.021.107-.022.192-.047.256-.075v.726c-.071.029-.174.05-.309.065a2.745 2.745 0 0 1-.439.032zm-2.853-4.82v-.726h3.601v.726h-3.601zm4.702 4.723v-7.693h.854v7.693h-.854zm3.9 0v-3.569c0-.413-.103-.723-.31-.929-.207-.207-.513-.31-.919-.31a1.9 1.9 0 0 0-.951.235 1.709 1.709 0 0 0-.641.652c-.15.278-.225.602-.225.972l-.138-1.293a2.17 2.17 0 0 1 .844-.962 2.447 2.447 0 0 1 1.303-.352c.57 0 1.026.164 1.368.491.349.321.524.745.524 1.272v3.793h-.855zm4.73.107c-.52 0-.98-.121-1.379-.363a2.635 2.635 0 0 1-.94-1.015c-.228-.428-.342-.919-.342-1.475 0-.555.11-1.043.331-1.464.228-.427.545-.758.951-.994.406-.235.873-.352 1.4-.352.506 0 .944.11 1.315.331.377.221.666.531.865.93.207.399.31.869.31 1.41 0 .072-.004.139-.011.203 0 .064-.007.136-.021.214h-4.499v-.716h3.975l-.278.395c0-.655-.146-1.157-.438-1.506-.285-.356-.691-.535-1.218-.535-.541 0-.979.189-1.314.567-.328.37-.492.872-.492 1.506 0 .649.164 1.169.492 1.561.335.384.78.577 1.336.577.349 0 .655-.075.919-.225.263-.156.455-.377.577-.662h.812a2.384 2.384 0 0 1-.898 1.186c-.413.285-.898.427-1.453.427zm5.937-.107v-5.449h.802v1.282h.053v4.167h-.855zm3.676 0v-3.611c0-.414-.092-.716-.278-.909-.185-.192-.452-.288-.801-.288a1.7 1.7 0 0 0-1.517.887c-.15.278-.225.602-.225.972l-.139-1.293c.185-.406.463-.726.834-.962a2.21 2.21 0 0 1 1.207-.352c.527 0 .955.157 1.283.47.327.306.491.723.491 1.25v3.836h-.855zm3.676 0v-3.611c0-.414-.092-.716-.278-.909-.185-.192-.452-.288-.801-.288a1.7 1.7 0 0 0-1.517.887c-.15.278-.225.602-.225.972l-.214-1.293c.186-.406.471-.726.855-.962a2.337 2.337 0 0 1 1.24-.352c.527 0 .958.157 1.293.47.335.306.502.723.502 1.25v3.836h-.855zm4.733.107c-.52 0-.98-.121-1.379-.363a2.635 2.635 0 0 1-.94-1.015c-.228-.428-.342-.919-.342-1.475 0-.555.11-1.043.331-1.464.228-.427.545-.758.951-.994.406-.235.873-.352 1.4-.352.506 0 .944.11 1.314.331.378.221.666.531.866.93.206.399.31.869.31 1.41 0 .072-.004.139-.011.203 0 .064-.007.136-.021.214h-4.499v-.716h3.975l-.278.395c0-.655-.146-1.157-.438-1.506-.285-.356-.691-.535-1.218-.535-.541 0-.98.189-1.314.567-.328.37-.492.872-.492 1.506 0 .649.164 1.169.492 1.561.334.384.78.577 1.335.577.349 0 .656-.075.919-.225.264-.156.456-.377.577-.662h.813a2.39 2.39 0 0 1-.898 1.186c-.413.285-.898.427-1.453.427zm3.798-.107v-5.449h.801v1.282h.054v4.167h-.855zm3.676 0v-3.611c0-.414-.093-.716-.278-.909-.185-.192-.452-.288-.801-.288a1.698 1.698 0 0 0-1.518.887 2.027 2.027 0 0 0-.224.972l-.139-1.293c.185-.406.463-.726.833-.962a2.213 2.213 0 0 1 1.208-.352c.527 0 .954.157 1.282.47.328.306.492.723.492 1.25v3.836h-.855zm3.676 0v-3.611c0-.414-.093-.716-.278-.909-.185-.192-.452-.288-.802-.288a1.697 1.697 0 0 0-1.517.887 2.027 2.027 0 0 0-.224.972l-.214-1.293c.185-.406.47-.726.855-.962a2.336 2.336 0 0 1 1.239-.352c.528 0 .959.157 1.293.47.335.306.503.723.503 1.25v3.836h-.855zm5.192.097c-.513 0-.944-.125-1.293-.374-.349-.25-.588-.602-.716-1.058l.117-.022v1.357h-.801v-7.693h.855v3.515l-.118-.032c.136-.42.381-.748.738-.983.363-.242.794-.363 1.293-.363.484 0 .904.117 1.26.352.364.236.645.563.845.984.199.42.299.911.299 1.474 0 .57-.103 1.069-.31 1.496a2.36 2.36 0 0 1-.866.994c-.37.235-.805.353-1.303.353zm-.129-.748c.542 0 .966-.186 1.272-.556.306-.378.46-.891.46-1.539 0-.641-.154-1.143-.46-1.507-.306-.37-.73-.555-1.272-.555-.541 0-.968.189-1.282.566-.313.371-.47.88-.47 1.528 0 .634.157 1.136.47 1.507.314.37.741.556 1.282.556zm6.15.758c-.52 0-.98-.121-1.379-.363a2.635 2.635 0 0 1-.94-1.015c-.228-.428-.342-.919-.342-1.475 0-.555.11-1.043.331-1.464.228-.427.545-.758.951-.994.406-.235.873-.352 1.4-.352.506 0 .944.11 1.314.331.378.221.666.531.866.93.206.399.31.869.31 1.41 0 .072-.004.139-.011.203 0 .064-.007.136-.021.214h-4.499v-.716h3.975l-.278.395c0-.655-.146-1.157-.438-1.506-.285-.356-.691-.535-1.218-.535-.541 0-.98.189-1.314.567-.328.37-.492.872-.492 1.506 0 .649.164 1.169.492 1.561.334.384.78.577 1.335.577.349 0 .656-.075.919-.225.264-.156.456-.377.577-.662h.812a2.382 2.382 0 0 1-.897 1.186c-.413.285-.898.427-1.453.427zm3.798-.107v-5.449h.801v1.389h.054v4.06h-.855zm.855-2.842-.139-1.293c.128-.463.356-.816.684-1.058a1.854 1.854 0 0 1 1.132-.363c.179 0 .3.014.364.043v.822a.427.427 0 0 0-.15-.021 2.193 2.193 0 0 0-.235-.011c-.541 0-.955.164-1.24.492-.277.32-.416.783-.416 1.389zm4.844 2.949c-.669 0-1.204-.153-1.603-.459-.399-.314-.627-.755-.684-1.325h.823c.05.349.203.616.46.801.256.185.598.278 1.026.278.377 0 .673-.071.886-.214a.688.688 0 0 0 .321-.609.7.7 0 0 0-.182-.481c-.121-.142-.363-.26-.726-.352l-.876-.225c-.499-.128-.873-.324-1.123-.587a1.376 1.376 0 0 1-.374-.962c0-.47.175-.841.524-1.111.349-.278.823-.417 1.421-.417.592 0 1.072.142 1.443.427.37.285.58.681.63 1.186h-.822a.994.994 0 0 0-.407-.673c-.22-.157-.512-.235-.876-.235-.349 0-.62.068-.812.203a.628.628 0 0 0-.288.556c0 .185.067.345.203.481.142.135.377.249.705.342l.855.235c.506.135.887.342 1.143.619.257.278.385.613.385 1.005 0 .477-.182.851-.545 1.122-.363.263-.866.395-1.507.395z"/></svg>