<svg xmlns="http://www.w3.org/2000/svg" width="247" height="88" fill="none"><rect width="246.649" height="86.701" x=".262" y=".944" fill="#fff" rx="11.959"/><path stroke="url(#a)" stroke-linecap="round" stroke-linejoin="round" stroke-width="2.242" d="M9.977 74.939c1.736-1.53 5.123-4.18 9.985-3.569 6.078.765 9.551 3.569 13.025 0 3.473-3.569 6.078-6.627 9.117-6.118 3.039.51 5.21 3.314 9.117 2.804 3.907-.51-6.98 5.191 10.42-2.803 17.399-7.995 15.504-6.777 16.497-4.079 1.225 3.325 4.776 8.157 12.157 5.098 7.38-3.059 7.554-6.372 12.59-6.372s2.171-1.275 3.907 0c1.737 1.274 2.605.764 4.776-.765 2.171-1.53 5.284-6.118 7.889-4.078 2.605 2.039 4.702 6.117 9.911 6.117 5.21 0 13.616-4.078 19.26-7.137 5.644-3.059 8.96 2.804 10.263 4.333 1.302 1.53 10.853-1.53 16.063-5.353 4.168-3.059 8.394 1.445 9.986 4.079 5.644-1.105 18.061-3.977 22.576-6.628 4.515-2.65 7.091-.255 7.814 1.275 4.052-1.785 20.44-14.275 22.61-20.902"/><path fill="#0D0D0D" d="M186.798 33.135a18.712 18.712 0 0 1 1.507-5.902 23.26 23.26 0 0 1 3.175-5.238v.341h-6.924v-2.117h9.525v1.973a31.067 31.067 0 0 0-2.135 3.498 20.771 20.771 0 0 0-1.471 3.606 18.11 18.11 0 0 0-.717 3.839h-2.96zm13.446.18c-1.698 0-3.013-.551-3.946-1.651-.921-1.112-1.381-2.679-1.381-4.7 0-1.423.221-2.649.664-3.677.454-1.04 1.094-1.842 1.919-2.404.825-.562 1.794-.843 2.906-.843 1.256 0 2.278.335 3.067 1.005.802.657 1.292 1.572 1.471 2.744H202.2c-.06-.526-.257-.927-.592-1.202-.323-.287-.73-.43-1.22-.43-.873 0-1.525.376-1.955 1.13-.431.753-.646 1.92-.646 3.498v1.166l-.556-.162c.131-.574.365-1.07.699-1.489a3.356 3.356 0 0 1 1.256-.968 4.215 4.215 0 0 1 1.722-.341c.837 0 1.573.173 2.207.52a3.55 3.55 0 0 1 1.471 1.435c.358.61.538 1.327.538 2.153 0 .849-.204 1.59-.61 2.224-.395.634-.957 1.124-1.686 1.47-.73.348-1.591.521-2.584.521zm-.197-2.118c.61 0 1.118-.173 1.525-.52.418-.358.628-.879.628-1.56 0-.682-.216-1.19-.646-1.525-.419-.347-.933-.52-1.543-.52-.622 0-1.148.173-1.578.52-.431.335-.646.831-.646 1.489 0 .442.102.825.305 1.148.215.31.49.55.825.717.347.168.724.251 1.13.251zm6.894 1.938 9.436-12.916h2.063l-9.418 12.916h-2.081zm9.185.18a2.93 2.93 0 0 1-1.418-.36c-.442-.239-.801-.603-1.076-1.094-.275-.49-.412-1.112-.412-1.865 0-.754.131-1.37.394-1.848.275-.49.634-.855 1.077-1.094.442-.24.92-.359 1.435-.359.538 0 1.028.12 1.471.359.454.239.813.604 1.076 1.094.263.478.394 1.094.394 1.848 0 .753-.137 1.375-.412 1.865a2.68 2.68 0 0 1-1.094 1.094c-.443.24-.921.36-1.435.36zm0-1.543c.37 0 .681-.15.932-.449.251-.31.377-.76.377-1.345 0-.562-.126-.993-.377-1.292a1.138 1.138 0 0 0-.932-.448c-.383 0-.694.15-.933.448-.227.3-.341.73-.341 1.292 0 .586.114 1.034.341 1.345.239.299.55.448.933.448zm-6.996-5.113a2.97 2.97 0 0 1-1.435-.359c-.443-.239-.802-.604-1.077-1.094-.263-.49-.394-1.112-.394-1.866 0-.753.131-1.369.394-1.847.275-.49.634-.855 1.077-1.094.442-.24.92-.36 1.435-.36.538 0 1.028.12 1.471.36.442.239.795.604 1.058 1.094.263.478.395 1.094.395 1.848 0 .753-.138 1.375-.413 1.865-.275.49-.634.855-1.076 1.094-.443.24-.921.36-1.435.36zm0-1.543c.37 0 .681-.15.932-.448.252-.311.377-.76.377-1.345 0-.563-.125-.993-.377-1.292a1.138 1.138 0 0 0-.932-.448c-.383 0-.694.15-.933.448-.227.287-.341.718-.341 1.292 0 .586.114 1.034.341 1.345.239.299.55.448.933.448z"/><path fill="gray" d="M22.628 21.165v-6.2l.204.05c-.078.174-.227.35-.447.524-.22.175-.476.327-.768.457-.285.13-.58.217-.884.262v-.748a3.43 3.43 0 0 0 1.613-.738c.22-.188.382-.39.486-.603h.573v6.996h-.777zm5.034.097c-.823 0-1.458-.298-1.905-.894-.44-.602-.66-1.47-.66-2.604 0-.784.103-1.45.31-2.001.214-.55.519-.969.914-1.254.395-.291.864-.437 1.409-.437.596 0 1.088.172 1.476.515.39.343.626.816.71 1.419h-.855c-.058-.402-.207-.707-.447-.914-.233-.213-.531-.32-.894-.32-.577 0-1.014.246-1.312.738-.291.492-.437 1.23-.437 2.215v.632l-.224-.087c.059-.305.188-.57.39-.797.2-.227.45-.402.747-.525a2.38 2.38 0 0 1 .962-.194c.44 0 .823.097 1.147.291.33.188.586.454.767.797.188.337.282.732.282 1.185 0 .447-.1.84-.301 1.176-.2.337-.48.6-.836.787-.356.182-.77.272-1.243.272zm.029-.7c.44 0 .797-.139 1.069-.417.272-.279.408-.654.408-1.127 0-.493-.133-.878-.399-1.157-.259-.285-.625-.427-1.098-.427-.453 0-.832.133-1.136.398-.299.266-.448.632-.448 1.098 0 .324.069.61.205.855.142.246.333.438.573.574.246.136.521.204.826.204zm6.828.7a4.19 4.19 0 0 1-.71-.058 1.731 1.731 0 0 1-.495-.126v-.739c.156.065.343.12.564.165.22.04.444.059.67.059.467 0 .82-.104 1.06-.311.239-.208.359-.525.359-.953v-5.13h.797v5.16c0 .647-.192 1.133-.574 1.457-.382.317-.939.476-1.671.476zm7.13-.097a2.765 2.765 0 0 1-.059-.379 12.38 12.38 0 0 1-.01-.544h-.048v-2.37c0-.377-.087-.652-.262-.827-.169-.181-.444-.272-.826-.272-.376 0-.677.078-.904.233a.827.827 0 0 0-.37.642h-.747c.032-.48.233-.855.602-1.127.37-.273.852-.409 1.448-.409.615 0 1.072.146 1.37.438.298.291.447.728.447 1.311v2.381c0 .142.01.291.029.447.02.149.045.308.078.476h-.748zm-1.7.097c-.513 0-.92-.123-1.225-.369-.298-.253-.447-.596-.447-1.03 0-.434.149-.77.447-1.01.298-.24.732-.409 1.302-.506l1.73-.291v.641l-1.614.253c-.362.058-.638.155-.825.291-.188.136-.282.334-.282.593 0 .253.084.444.252.573.175.13.431.195.768.195.434 0 .787-.098 1.06-.292.278-.2.417-.46.417-.777l.126.69a1.33 1.33 0 0 1-.612.767c-.298.182-.664.272-1.098.272zm4.213-.097V16.21h.729v1.166h.048v3.789h-.777zm3.546 0V17.92c0-.376-.094-.658-.281-.846-.188-.188-.467-.281-.836-.281a1.73 1.73 0 0 0-.865.213 1.56 1.56 0 0 0-.583.593 1.837 1.837 0 0 0-.204.884l-.126-1.175a1.97 1.97 0 0 1 .767-.875c.35-.214.745-.32 1.186-.32.518 0 .933.148 1.244.446.317.292.476.677.476 1.157v3.449h-.778zm4.257.097a1.87 1.87 0 0 1-.865-.194 1.505 1.505 0 0 1-.592-.564 1.656 1.656 0 0 1-.214-.845v-3.45h.777v3.246c0 .376.09.657.272.845.188.188.454.282.797.282.31 0 .586-.071.826-.214a1.5 1.5 0 0 0 .563-.592c.143-.26.214-.554.214-.885l.127 1.176a1.92 1.92 0 0 1-.758.875c-.344.213-.726.32-1.147.32zm1.827-.097v-1.166h-.049v-3.79h.777v4.956h-.728zm5.659 0a2.765 2.765 0 0 1-.058-.379 12.38 12.38 0 0 1-.01-.544h-.049v-2.37c0-.377-.087-.652-.262-.827-.169-.181-.444-.272-.826-.272-.376 0-.677.078-.904.233a.827.827 0 0 0-.369.642h-.748c.032-.48.233-.855.602-1.127.37-.273.852-.409 1.448-.409.616 0 1.072.146 1.37.438.298.291.447.728.447 1.311v2.381c0 .142.01.291.03.447.019.149.045.308.077.476h-.748zm-1.7.097c-.512 0-.92-.123-1.225-.369-.298-.253-.447-.596-.447-1.03 0-.434.15-.77.447-1.01.298-.24.732-.409 1.302-.506l1.73-.291v.641l-1.613.253c-.363.058-.638.155-.826.291-.188.136-.282.334-.282.593 0 .253.084.444.253.573.175.13.43.195.767.195.434 0 .787-.098 1.06-.292.278-.2.417-.46.417-.777l.127.69c-.104.33-.308.586-.612.767-.298.182-.664.272-1.098.272zm4.213-.097V16.21h.729v1.263h.049v3.692h-.778zm.778-2.584-.127-1.176c.117-.421.324-.742.622-.962.298-.22.641-.33 1.03-.33.162 0 .272.012.33.038v.748a.377.377 0 0 0-.136-.019 1.974 1.974 0 0 0-.213-.01c-.493 0-.868.15-1.128.447-.252.292-.378.713-.378 1.264zm3.667 4.576 1.108-2.575.175-.272 1.622-4.1h.797l-2.876 6.947h-.826zm1.195-1.943L65.38 16.21h.855l1.914 4.479-.544.525zm5.767-.049v-.68c.7-.577 1.283-1.082 1.75-1.516.472-.434.848-.82 1.127-1.156.285-.337.486-.645.602-.923a2.1 2.1 0 0 0 .185-.836c0-.401-.12-.716-.36-.942-.24-.227-.57-.34-.99-.34-.435 0-.785.123-1.05.369-.266.246-.428.599-.486 1.059h-.836c.065-.635.308-1.147.729-1.535.427-.395.994-.593 1.7-.593.655 0 1.176.175 1.565.525.388.35.583.829.583 1.438 0 .33-.065.66-.195.99-.123.331-.33.678-.621 1.04-.285.363-.664.765-1.137 1.205-.467.434-1.046.927-1.74 1.477l-.184-.282h3.993v.7h-4.635zm8.649.097a2.38 2.38 0 0 1-1.448-.457c-.408-.31-.729-.738-.962-1.282-.227-.55-.34-1.179-.34-1.885s.113-1.325.34-1.856c.227-.537.547-.955.962-1.253a2.38 2.38 0 0 1 1.448-.457c.55 0 1.03.152 1.438.457.414.298.735.716.962 1.253.233.531.35 1.15.35 1.856 0 .712-.117 1.34-.35 1.885-.227.544-.548.972-.962 1.282-.408.305-.888.457-1.438.457zm0-.7c.395 0 .732-.116 1.01-.35.279-.239.493-.576.642-1.01.149-.44.223-.965.223-1.574 0-.602-.074-1.117-.223-1.545-.143-.427-.353-.751-.632-.971-.279-.227-.619-.34-1.02-.34-.402 0-.742.113-1.02.34-.279.226-.493.553-.642.981-.142.421-.214.933-.214 1.535 0 .61.075 1.134.224 1.574.149.44.363.778.641 1.01.279.234.616.35 1.01.35zm3.94.603v-.68c.7-.577 1.284-1.082 1.75-1.516.473-.434.849-.82 1.127-1.156.285-.337.486-.645.602-.923a2.1 2.1 0 0 0 .185-.836c0-.401-.12-.716-.36-.942-.24-.227-.57-.34-.99-.34-.434 0-.784.123-1.05.369s-.427.599-.486 1.059h-.835c.064-.635.307-1.147.728-1.535.428-.395.995-.593 1.7-.593.655 0 1.176.175 1.565.525.389.35.583.829.583 1.438 0 .33-.065.66-.194.99-.123.331-.33.678-.622 1.04-.285.363-.664.765-1.137 1.205-.466.434-1.046.927-1.74 1.477l-.184-.282h3.994v.7H85.96zm8.748 0v-1.846l.02-.194V15.13h.262l-2.954 4.042-.262-.32h4.663v.7H91.23v-.603l3.517-4.78h.797v6.995h-.836z"/><path fill="#1A1A1A" d="M24.448 40.273c-1.037 0-1.866-.248-2.488-.742-.622-.494-.984-1.2-1.088-2.117h1.232c.071.599.31 1.053.717 1.364.407.31.957.466 1.65.466.582 0 1.021-.107 1.316-.323.303-.215.454-.522.454-.92 0-.36-.1-.642-.299-.85-.199-.215-.514-.39-.944-.526l-1.495-.478c-.765-.247-1.328-.558-1.686-.933-.36-.375-.538-.849-.538-1.423 0-.486.12-.905.358-1.256.247-.35.59-.621 1.029-.813.446-.2.964-.299 1.554-.299.91 0 1.635.231 2.177.694.55.454.865 1.088.945 1.901H26.11c-.096-.542-.303-.937-.622-1.184-.319-.255-.757-.382-1.316-.382-.526 0-.936.103-1.231.31-.295.208-.443.499-.443.874 0 .302.096.558.287.765.2.2.526.37.98.514l1.567.502c.726.232 1.26.547 1.603.945.35.399.526.901.526 1.507 0 .765-.263 1.36-.79 1.782-.525.414-1.267.622-2.223.622zm6.65.012c-.71 0-1.232-.164-1.567-.49-.327-.336-.49-.826-.49-1.472v-5.656l1.232-.467v6.135c0 .32.083.554.25.706.168.151.44.227.814.227a1.838 1.838 0 0 0 .67-.12v1.005c-.088.04-.212.072-.371.096-.16.024-.339.036-.538.036zm-3.277-5.226v-.993h4.186v.993H27.82zm8.87 5.106a2.988 2.988 0 0 1-.084-.502 15.74 15.74 0 0 1-.012-.67h-.06v-2.906c0-.39-.1-.681-.299-.873-.191-.2-.498-.299-.92-.299-.407 0-.734.08-.981.24a.931.931 0 0 0-.419.681h-1.184a1.866 1.866 0 0 1 .778-1.375c.462-.343 1.08-.514 1.853-.514.797 0 1.395.187 1.794.561.399.367.598.91.598 1.627v2.858c0 .183.012.37.036.562.024.191.06.395.107.61h-1.207zm-2.105.12c-.622 0-1.116-.152-1.483-.455-.367-.31-.55-.73-.55-1.255 0-.543.191-.97.574-1.28.39-.319.949-.534 1.674-.646l2.01-.323v.873l-1.819.287c-.406.064-.713.172-.92.323-.2.152-.3.37-.3.658 0 .279.092.49.276.634.191.135.466.203.825.203.478 0 .873-.116 1.184-.347.319-.231.478-.522.478-.873l.156.885c-.144.423-.4.75-.766.98-.366.224-.813.336-1.34.336zm6.965 0c-.71 0-1.232-.164-1.567-.49-.327-.336-.49-.826-.49-1.472v-5.656l1.231-.467v6.135c0 .32.084.554.252.706.167.151.438.227.813.227a1.838 1.838 0 0 0 .67-.12v1.005c-.088.04-.212.072-.371.096-.16.024-.34.036-.538.036zm-3.277-5.226v-.993h4.185v.993h-4.185zm7.604 5.226c-.613 0-1.156-.136-1.626-.407a2.892 2.892 0 0 1-1.088-1.124c-.263-.478-.395-1.029-.395-1.65 0-.63.128-1.18.383-1.65.263-.48.63-.85 1.1-1.113.47-.263 1.009-.395 1.614-.395.59 0 1.1.128 1.531.383.439.247.773.594 1.005 1.04.239.447.358.977.358 1.591 0 .096-.003.187-.011.275a1.4 1.4 0 0 1-.024.251h-5.119v-.932h4.246l-.311.37c0-.654-.148-1.152-.443-1.495-.295-.342-.705-.514-1.231-.514-.567 0-1.017.196-1.352.586-.327.383-.49.917-.49 1.603 0 .693.163 1.235.49 1.626.335.39.797.586 1.387.586.36 0 .67-.072.933-.215.263-.152.459-.371.586-.658h1.172a2.635 2.635 0 0 1-1.016 1.351c-.47.327-1.037.49-1.699.49zm3.916-.12v-6.099h1.184v1.435h.06v4.664h-1.244zm4.113 0v-3.982c0-.415-.095-.718-.287-.91-.191-.19-.466-.286-.825-.286-.335 0-.638.08-.909.24-.263.15-.47.366-.622.645-.151.27-.227.594-.227.968l-.155-1.423c.2-.454.498-.813.897-1.076a2.456 2.456 0 0 1 1.363-.395c.606 0 1.088.176 1.447.527.367.35.55.813.55 1.387v4.305h-1.232zm4.114 0v-3.982c0-.415-.1-.718-.299-.91-.191-.19-.466-.286-.825-.286a1.736 1.736 0 0 0-1.53.885c-.152.27-.228.594-.228.968l-.251-1.423c.207-.454.518-.813.933-1.076a2.616 2.616 0 0 1 1.41-.395c.615 0 1.105.18 1.472.539.367.35.55.82.55 1.41v4.27H58.02zm5.294.12c-.614 0-1.156-.136-1.627-.407a2.893 2.893 0 0 1-1.088-1.124c-.263-.478-.394-1.029-.394-1.65 0-.63.127-1.18.382-1.65.263-.48.63-.85 1.1-1.113.47-.263 1.009-.395 1.615-.395.59 0 1.1.128 1.53.383.44.247.774.594 1.005 1.04.24.447.359.977.359 1.591 0 .096-.004.187-.012.275 0 .08-.008.164-.024.251h-5.118v-.932h4.245l-.31.37c0-.654-.148-1.152-.443-1.495-.295-.342-.706-.514-1.232-.514-.566 0-1.017.196-1.351.586-.327.383-.49.917-.49 1.603 0 .693.163 1.235.49 1.626.334.39.797.586 1.387.586.359 0 .67-.072.933-.215.263-.152.458-.371.586-.658h1.171a2.634 2.634 0 0 1-1.016 1.351c-.47.327-1.036.49-1.698.49zm3.915-.12v-6.099h1.184v1.435h.06v4.664H67.23zm4.329 0v-3.922c0-.423-.108-.738-.323-.945-.207-.208-.518-.311-.933-.311-.358 0-.677.08-.956.24a1.756 1.756 0 0 0-.646.657c-.152.279-.227.61-.227.992l-.156-1.459c.2-.454.507-.813.921-1.076.415-.263.897-.395 1.447-.395.654 0 1.168.184 1.543.55.374.367.562.854.562 1.46v4.209h-1.232zm5.08.12c-.709 0-1.231-.164-1.566-.49-.327-.336-.49-.826-.49-1.472v-5.656l1.231-.467v6.135c0 .32.084.554.252.706.167.151.438.227.813.227a1.839 1.839 0 0 0 .67-.12v1.005c-.088.04-.212.072-.371.096-.16.024-.339.036-.538.036zm-3.276-5.226v-.993h4.186v.993h-4.186zm9.9 5.226c-.622 0-1.168-.136-1.638-.407a2.952 2.952 0 0 1-1.1-1.136 3.41 3.41 0 0 1-.395-1.65c0-.622.132-1.168.395-1.639.27-.47.637-.837 1.1-1.1.47-.271 1.016-.407 1.638-.407.63 0 1.18.136 1.65.407.47.263.834.63 1.089 1.1.263.47.394 1.017.394 1.639 0 .614-.131 1.164-.394 1.65a2.867 2.867 0 0 1-1.088 1.136c-.47.271-1.021.407-1.65.407zm0-1.017c.375 0 .698-.092.969-.275.279-.183.498-.438.658-.765.16-.327.239-.71.239-1.148 0-.654-.176-1.168-.526-1.543-.343-.383-.79-.574-1.34-.574-.542 0-.988.191-1.34.574-.342.383-.513.897-.513 1.543 0 .438.075.82.227 1.148.16.327.379.582.658.765.287.183.61.275.968.275zm4.58.897v-6.804c0-.622.176-1.097.526-1.424.351-.334.877-.502 1.579-.502.16 0 .291.008.395.024.103.016.195.04.275.072v.956a2.16 2.16 0 0 0-.526-.071c-.351 0-.606.088-.766.263-.16.167-.239.407-.239.717v6.769h-1.244zm-1.172-5.106v-.993h3.815v.993h-3.815zm9.526 5.226c-.614 0-1.156-.136-1.626-.407a2.893 2.893 0 0 1-1.088-1.124c-.264-.478-.395-1.029-.395-1.65 0-.63.128-1.18.383-1.65.263-.48.63-.85 1.1-1.113.47-.263 1.008-.395 1.614-.395.59 0 1.1.128 1.531.383.439.247.773.594 1.005 1.04.239.447.358.977.358 1.591 0 .096-.004.187-.012.275 0 .08-.008.164-.023.251h-5.119v-.932h4.246l-.312.37c0-.654-.147-1.152-.442-1.495-.295-.342-.706-.514-1.232-.514-.566 0-1.016.196-1.351.586-.327.383-.49.917-.49 1.603 0 .693.163 1.235.49 1.626.335.39.797.586 1.387.586.359 0 .67-.072.933-.215.263-.152.458-.371.586-.658h1.172a2.634 2.634 0 0 1-1.017 1.351c-.47.327-1.036.49-1.698.49zm7.624-.12a2.99 2.99 0 0 1-.083-.502 15.74 15.74 0 0 1-.012-.67h-.06v-2.906c0-.39-.1-.681-.299-.873-.192-.2-.498-.299-.921-.299-.407 0-.733.08-.981.24a.931.931 0 0 0-.418.681h-1.184a1.867 1.867 0 0 1 .777-1.375c.463-.343 1.081-.514 1.854-.514.797 0 1.395.187 1.794.561.398.367.598.91.598 1.627v2.858c0 .183.012.37.035.562.024.191.06.395.108.61h-1.208zm-2.104.12c-.622 0-1.117-.152-1.483-.455-.367-.31-.55-.73-.55-1.255 0-.543.19-.97.574-1.28.39-.319.948-.534 1.674-.646l2.009-.323v.873l-1.818.287c-.406.064-.713.172-.921.323-.199.152-.299.37-.299.658 0 .279.092.49.275.634.192.135.467.203.826.203.478 0 .873-.116 1.183-.347.319-.231.479-.522.479-.873l.155.885a1.8 1.8 0 0 1-.765.98c-.367.224-.813.336-1.339.336zm4.614-.12v-6.099h1.184v1.519h.06v4.58h-1.244zm1.244-3.181-.155-1.447c.143-.518.39-.913.741-1.184.351-.271.769-.407 1.256-.407.183 0 .311.016.382.048v1.172a.458.458 0 0 0-.167-.024 2.427 2.427 0 0 0-.263-.012c-.598 0-1.048.156-1.351.467-.295.31-.443.773-.443 1.387zm3.095 3.181v-6.099h1.184v1.435h.06v4.664h-1.244zm4.329 0v-3.922c0-.423-.107-.738-.323-.945-.207-.208-.518-.311-.932-.311-.359 0-.678.08-.957.24a1.764 1.764 0 0 0-.646.657c-.151.279-.227.61-.227.992l-.156-1.459c.2-.454.507-.813.921-1.076.415-.263.897-.395 1.447-.395.654 0 1.168.184 1.543.55.375.367.562.854.562 1.46v4.209h-1.232zm2.661 0v-6.099h1.244v6.099h-1.244zm-.06-7.295v-1.399h1.375v1.4H117.6zm2.811 7.295v-6.099h1.183v1.435h.06v4.664h-1.243zm4.329 0v-3.922c0-.423-.108-.738-.323-.945-.208-.208-.519-.311-.933-.311-.359 0-.678.08-.957.24a1.764 1.764 0 0 0-.646.657c-.151.279-.227.61-.227.992l-.155-1.459c.199-.454.506-.813.921-1.076.414-.263.896-.395 1.447-.395.653 0 1.168.184 1.542.55.375.367.562.854.562 1.46v4.209h-1.231zm5.231 2.571c-.765 0-1.399-.175-1.901-.526a2.062 2.062 0 0 1-.897-1.375h1.172c.08.263.255.47.526.622.279.151.65.227 1.112.227.598 0 1.045-.148 1.34-.443.294-.295.442-.733.442-1.315V38.61l.108.024c-.12.463-.379.83-.778 1.1-.398.264-.877.395-1.435.395-.534 0-1.004-.127-1.411-.383a2.565 2.565 0 0 1-.945-1.064c-.223-.462-.334-1-.334-1.614 0-.622.115-1.168.346-1.639a2.58 2.58 0 0 1 .969-1.088c.423-.255.913-.383 1.471-.383.574 0 1.048.14 1.423.419.383.271.626.658.729 1.16l-.095.012v-1.483h1.184v5.848c0 .877-.271 1.566-.813 2.069-.535.502-1.272.753-2.213.753zm.06-3.611c.534 0 .961-.188 1.28-.562.326-.375.49-.89.49-1.543 0-.638-.164-1.14-.49-1.507-.319-.367-.75-.55-1.292-.55s-.973.187-1.292.562c-.318.367-.478.877-.478 1.53 0 .639.16 1.145.478 1.52.327.366.762.55 1.304.55zm6.676 1.16c-.797 0-1.431-.176-1.901-.527-.471-.35-.738-.845-.801-1.482h1.148c.055.35.215.621.478.813.271.183.638.275 1.1.275.407 0 .718-.072.933-.215a.692.692 0 0 0 .323-.61.65.65 0 0 0-.191-.479c-.12-.135-.359-.247-.718-.335l-.981-.227c-.613-.151-1.072-.374-1.375-.67a1.533 1.533 0 0 1-.442-1.112c0-.55.203-.98.61-1.291.414-.32.98-.478 1.698-.478.709 0 1.279.159 1.71.478.438.319.685.765.741 1.34h-1.148a.934.934 0 0 0-.418-.659c-.224-.159-.53-.239-.921-.239-.367 0-.65.068-.849.204a.61.61 0 0 0-.287.538c0 .191.072.35.215.478.152.128.399.235.741.323l1.005.251c.582.144 1.02.379 1.315.706.295.319.443.705.443 1.16 0 .55-.215.98-.646 1.291-.422.311-1.016.467-1.782.467z"/><defs><linearGradient id="a" x1="237.94" x2="22.988" y1="29.821" y2="116.861" gradientUnits="userSpaceOnUse"><stop stop-color="#fff"/><stop offset=".73" stop-color="#B8FF33"/><stop offset=".882" stop-color="#FFE7E7"/><stop offset="1" stop-color="#fff"/></linearGradient></defs></svg>